<svg
  id="bat-part"
  xmlns="http://www.w3.org/2000/svg"
  version="2.0"
  viewBox="0 0 1254 1254"
  role="img"
  aria-labelledby="title desc">
  <title id="title">Bat Motifs</title>
  <desc id="desc">The small bat and large wing-like bat motif extracted from the Adobe converted SVG.</desc>
  <g id="background">
    <rect
      id="transparent-background"
      x="0"
      y="0"
      width="1254"
      height="1254"
      fill="none" />
  </g>
<g id="bat">
    <path id="bat-path-006-01" fill="#F8F8F9" stroke="none" 
        	d="
        M512.608154,328.857758 
        	C532.833191,317.710571 553.529968,317.183533 574.678284,324.576447 
        	C576.303101,325.144409 578.060364,326.994568 578.634827,328.640137 
        	C582.797363,340.564484 602.929749,348.897491 614.008545,342.886993 
        	C615.417358,342.122742 616.488647,340.081757 616.982117,338.414917 
        	C618.190674,334.333344 618.969788,330.124664 619.941040,325.882416 
        	C621.886658,330.617706 623.125061,335.323730 625.714783,339.103973 
        	C626.754150,340.621185 630.763306,340.103943 632.734497,340.407166 
        	C634.559570,334.905396 636.091125,330.288300 637.927246,324.753143 
        	C639.022461,329.850159 640.518311,334.359985 640.806274,338.945618 
        	C641.027283,342.465942 642.854980,344.064728 645.488708,344.267822 
        	C649.548828,344.580963 653.928833,344.785614 657.729187,343.605896 
        	C666.266602,340.955688 673.108582,335.826813 676.768066,327.208038 
        	C677.156311,326.293610 678.121765,325.292236 679.039001,324.983063 
        	C700.635071,317.704834 721.845337,317.306274 742.311401,328.820862 
        	C742.669800,329.022491 742.938721,329.383118 743.447571,329.852356 
        	C715.800781,327.035706 695.616638,343.738708 694.148621,362.026520 
        	C688.528076,359.268005 682.896362,358.125183 677.085876,361.323700 
        	C671.314148,364.500977 668.755920,369.653290 667.814453,375.878845 
        	C657.329346,371.226074 649.038208,372.910767 641.492188,382.394684 
        	C636.598938,388.544647 632.866455,395.618195 628.675720,402.181091 
        	C626.794556,398.719269 625.090759,394.131592 622.164368,390.539978 
        	C617.816467,385.203674 613.169250,379.771637 607.613403,375.846802 
        	C600.939331,371.131989 595.731384,371.966003 587.481262,376.358368 
        	C582.228394,360.060333 574.887329,356.165955 559.960388,362.141815 
        	C558.757935,350.853577 552.580872,342.738861 543.402527,336.768036 
        	C534.408997,330.917542 524.469360,328.807709 513.813477,329.990906 
        	C513.221680,330.056610 512.601196,329.864014 511.994080,329.791656 
        	C512.110352,329.534515 512.226624,329.277374 512.608154,328.857758 
        z"/>
  </g>

</svg>
