<svg
  id="bat-part"
  xmlns="http://www.w3.org/2000/svg"
  version="2.0"
  viewBox="0 0 1254 1254"
  role="img"
  aria-labelledby="title desc">
  <title id="title">Bat Motifs</title>
  <desc id="desc">The small bat and large wing-like bat motif extracted from the Adobe converted SVG.</desc>
  <g id="background">
    <rect
      id="transparent-background"
      x="0"
      y="0"
      width="1254"
      height="1254"
      fill="none" />
  </g>
<g id="bat">
    <path id="path-003" fill="#FBFBFB" stroke="none" 
    	d="
    M698.478149,486.551697 
    	C685.500549,471.282410 669.100769,461.932587 650.732849,454.881775 
    	C654.090576,454.881775 657.448242,454.878021 660.805969,454.882446 
    	C677.135437,454.904022 693.464966,454.945770 709.794434,454.944672 
    	C721.455872,454.943878 725.156433,452.500366 729.529053,441.975739 
    	C730.852417,444.553375 732.040588,447.122742 733.450684,449.563965 
    	C736.925171,455.579254 739.516968,456.521545 746.248230,454.458130 
    	C751.996338,452.696075 756.604980,449.479950 760.241760,444.580383 
    	C777.521179,421.300934 799.395874,403.375031 825.015076,390.022125 
    	C853.843872,374.996399 884.696716,367.642883 917.105469,366.574646 
    	C921.974609,366.414154 926.853577,366.552307 931.826782,367.034210 
    	C927.965027,368.262817 924.058289,369.366882 920.249023,370.741119 
    	C901.179321,377.620911 884.030273,387.726776 870.254883,402.696686 
    	C864.688171,408.746155 859.924133,415.771667 855.941101,422.985931 
    	C849.821106,434.070831 849.488708,442.627594 852.880127,455.122650 
    	C827.989746,460.491180 814.337891,483.432434 816.145630,508.269806 
    	C793.199097,500.814484 786.097046,503.837494 771.479797,527.533264 
    	C766.636719,514.811829 759.325623,504.437683 746.104614,499.793121 
    	C732.795105,495.117554 720.929138,497.271210 711.638550,507.813751 
    	C707.340210,500.837891 703.023438,493.832123 698.478149,486.551697 
    z"/>
  </g>

</svg>
