<svg
  id="circuit-board"
  xmlns="http://www.w3.org/2000/svg"
  version="2.0"
  viewBox="0 0 1254 1254"
  role="img"
  aria-labelledby="title desc">
  <title id="title">Circuit Board</title>
  <desc id="desc">The circuit-board traces and nodes extracted from the Adobe converted SVG.</desc>
  <g id="background">
    <rect
      id="transparent-background"
      x="0"
      y="0"
      width="1254"
      height="1254"
      fill="none" />
  </g>
  <g id="circuit-board">
    <path id="path-024" fill="#DEDEDE" stroke="none" 
    	d="
    M406.915436,817.179138 
    	C406.997162,818.304199 406.647339,819.779846 407.230408,820.497681 
    	C411.105164,825.267822 415.111359,829.938354 419.260498,834.471252 
    	C419.907227,835.177673 421.523743,835.296387 422.654083,835.207458 
    	C427.168854,834.852295 430.673553,837.288208 430.880585,841.126953 
    	C431.097565,845.150085 427.265320,848.919128 423.247528,848.634155 
    	C419.322327,848.355835 417.011261,844.901855 417.672119,840.290161 
    	C417.719116,839.962036 417.854034,839.645813 417.893951,839.317444 
    	C418.436859,834.853943 404.925293,820.348877 400.499481,820.949585 
    	C392.927795,821.977173 385.362793,823.145508 377.870636,824.635071 
    	C373.053619,825.592834 369.099976,824.975220 364.850861,822.118896 
    	C348.716766,811.273254 332.308563,800.834900 315.981537,790.277222 
    	C313.374115,788.591125 311.025482,787.111816 307.336761,788.529602 
    	C303.374176,790.052612 299.507965,786.623230 299.019379,782.210693 
    	C298.536835,777.852966 301.498230,774.159973 305.690826,773.891052 
    	C309.633575,773.638245 313.444763,776.799866 312.950928,780.955505 
    	C312.468750,785.013123 314.597717,786.406860 317.359650,788.174500 
    	C334.437744,799.104736 351.402435,810.212769 368.518158,821.083191 
    	C370.258118,822.188171 372.841278,822.750610 374.879120,822.465210 
    	C383.585785,821.245789 392.227325,819.568481 400.910583,818.169556 
    	C402.683289,817.883972 404.533325,818.078308 406.633789,817.662109 
    	C406.919891,817.272888 406.915436,817.179138 406.915436,817.179138 
    M421.494995,837.919128 
    	C419.292358,839.914429 418.065613,842.393555 420.477661,844.682068 
    	C421.572113,845.720581 424.415466,846.192688 425.624084,845.484924 
    	C426.905884,844.734314 428.248810,841.451843 427.691315,840.737549 
    	C426.476929,839.181580 424.072266,838.554688 421.494995,837.919128 
    M308.411072,783.986328 
    	C308.405518,782.159973 308.731934,780.228882 308.207336,778.566284 
    	C308.032867,778.013367 305.186279,777.529907 304.435303,778.122375 
    	C303.427399,778.917603 302.472900,781.649780 302.891998,782.036316 
    	C304.185669,783.229492 306.142334,783.703796 308.411072,783.986328 
    z"/>
    <path id="path-032" fill="#DEDEDE" stroke="none" 
    	d="
    M892.309326,820.716736 
    	C893.085266,821.034363 893.459412,821.588928 893.833496,822.143433 
    	C891.558838,822.822327 889.201294,824.277039 887.024048,824.044373 
    	C878.090820,823.090027 869.231323,821.447266 860.298828,820.482666 
    	C858.403137,820.277893 855.834229,821.357483 854.416077,822.720215 
    	C851.555298,825.469177 849.295715,828.838806 846.742920,831.914856 
    	C844.591614,834.507019 842.413574,836.595703 843.934570,840.848572 
    	C845.276855,844.601929 841.370728,848.392761 837.374939,848.417175 
    	C833.261230,848.442322 830.242981,845.253662 830.334534,840.979187 
    	C830.423218,836.842285 833.276733,834.649841 837.566101,834.654480 
    	C839.362122,834.656433 841.603516,833.762573 842.872253,832.501282 
    	C846.527100,828.868103 849.907776,824.936401 853.165894,820.934570 
    	C855.447021,818.132751 858.051941,817.431335 861.526733,818.023682 
    	C869.734924,819.423035 877.977417,820.645142 886.235535,821.709229 
    	C888.063416,821.944763 890.013550,821.230469 892.309326,820.716736 
    M839.187561,837.113220 
    	C835.214050,836.706421 832.988037,838.419617 833.706360,842.459351 
    	C833.920471,843.663696 835.825073,845.336731 837.028809,845.400391 
    	C838.518494,845.479065 841.235779,844.273499 841.374634,843.323364 
    	C841.650024,841.439453 840.521118,839.350281 839.187561,837.113220 
    z"/>
    <path id="path-038" fill="#E3E3E3" stroke="none" 
    	d="
    M407.198669,817.496521 
    	C406.915436,817.179138 406.919891,817.272888 406.919556,817.314697 
    	C407.459747,816.483093 408.000214,815.609680 408.791962,814.330139 
    	C423.069000,822.963074 437.398712,831.588196 451.651520,840.338562 
    	C452.567932,840.901184 453.399048,842.426208 453.410645,843.512695 
    	C453.535919,855.252930 453.488831,866.994934 453.488831,878.736511 
    	C453.039642,878.778015 452.590454,878.819519 452.141266,878.861023 
    	C451.975647,877.486877 451.679260,876.114075 451.665497,874.738464 
    	C451.568970,865.098633 451.621063,855.455994 451.380981,845.820374 
    	C451.342926,844.294312 450.488098,842.123474 449.305542,841.393799 
    	C437.026398,833.817200 424.623810,826.438904 412.188965,819.118591 
    	C410.833588,818.320801 409.061005,818.231689 407.198669,817.496521 
    z"/>
    <path id="path-039" fill="#DEDEDE" stroke="none" 
    	d="
    M829.496155,826.586060 
    	C836.555420,822.125793 843.311096,817.864990 850.066772,813.604248 
    	C850.456848,814.175232 850.846924,814.746216 851.236938,815.317200 
    	C849.783020,816.343933 848.362061,817.421570 846.869812,818.389282 
    	C836.129150,825.355591 825.421631,832.375061 814.591431,839.199646 
    	C811.747681,840.991638 810.741028,843.063538 810.838257,846.433289 
    	C811.097351,855.415405 810.954651,864.409851 810.915649,873.399109 
    	C810.909180,874.882324 810.619568,876.364258 810.460815,877.846802 
    	C809.925232,877.828613 809.389587,877.810486 808.853943,877.792358 
    	C808.853943,874.795471 808.864807,871.798584 808.851807,868.801758 
    	C808.814941,860.311829 808.637695,851.818848 808.839355,843.334717 
    	C808.878235,841.701111 809.975159,839.520447 811.290161,838.587830 
    	C817.117126,834.455566 823.201355,830.686218 829.496155,826.586060 
    z"/>
    <path id="path-050" fill="#D2D3D3" stroke="none" 
    	d="
    M943.609375,788.820557 
    	C946.748657,786.423767 950.191895,784.785034 949.611328,779.353271 
    	C949.253296,776.003601 952.875122,773.735046 956.776672,774.422485 
    	C960.652954,775.105408 962.844727,778.684265 962.136902,782.635742 
    	C961.458557,786.422546 957.846436,789.621826 954.785400,788.166077 
    	C950.923401,786.329407 948.570923,788.350647 945.250366,789.742554 
    	C944.343262,789.300476 943.976318,789.060547 943.609375,788.820557 
    M959.389771,783.751038 
    	C960.313782,780.997375 960.327393,778.149170 957.200623,777.235962 
    	C955.628418,776.776794 952.692444,777.646484 951.864990,778.899902 
    	C951.005737,780.201843 951.265503,783.177185 952.247803,784.559143 
    	C954.110046,787.178772 956.749512,786.599670 959.389771,783.751038 
    z"/>
    <path id="path-160" fill="#DEDEDE" stroke="none" 
    	d="
    M901.923828,817.425049 
    	C900.547852,817.984497 899.528931,818.283447 898.510071,818.582397 
    	C898.282715,818.069458 898.055359,817.556580 897.827942,817.043640 
    	C900.521545,815.395569 903.215088,813.747559 905.908691,812.099487 
    	C906.295471,812.609985 906.682312,813.120544 907.069092,813.631042 
    	C905.473022,814.808899 903.876953,815.986694 901.923828,817.425049 
    z"/>
    <path id="path-165" fill="#DEDEDE" stroke="none" 
    	d="
    M929.510986,797.213623 
    	C931.198364,796.326599 932.528381,795.668152 933.858398,795.009766 
    	C934.162415,795.560730 934.466431,796.111755 934.770447,796.662781 
    	C932.100525,798.337158 929.430664,800.011475 926.760742,801.685852 
    	C926.369385,801.137085 925.977966,800.588318 925.586609,800.039551 
    	C926.775574,799.173767 927.964600,798.307983 929.510986,797.213623 
    z"/>
    <path id="path-169" fill="#DEDEDE" stroke="none" 
    	d="
    M915.592407,806.532227 
    	C917.386536,805.030701 919.109375,804.036438 920.832214,803.042175 
    	C921.138062,803.684143 921.443909,804.326111 921.749756,804.968079 
    	C919.673523,805.658569 917.597351,806.348999 915.592407,806.532227 
    z"/>
    <path id="path-171" fill="#DEDEDE" stroke="none" 
    	d="
    M925.917847,802.218140 
    	C924.283447,803.178345 923.039856,803.802795 921.796326,804.427246 
    	C921.504883,804.070496 921.213440,803.713745 920.921997,803.356995 
    	C922.211914,802.329529 923.475281,801.261963 924.844482,800.354004 
    	C924.948853,800.284790 925.803040,801.346375 925.917847,802.218140 
    z"/>
    <path id="path-172" fill="#DEDEDE" stroke="none" 
    	d="
    M942.725220,791.534302 
    	C941.071289,792.530518 939.417419,793.526733 937.763550,794.522949 
    	C937.473694,794.109314 937.183899,793.695679 936.894043,793.282043 
    	C938.229248,792.236633 939.564453,791.191284 941.514587,790.468140 
    	C942.328064,791.038452 942.526672,791.286377 942.725220,791.534302 
    z"/>
    <path id="path-174" fill="#DEDEDE" stroke="none" 
    	d="
    M909.922424,809.716248 
    	C911.219788,808.843140 912.517212,807.970032 913.814636,807.096985 
    	C914.162292,807.480042 914.510010,807.863098 914.857727,808.246155 
    	C913.958496,809.163635 913.059265,810.081116 911.461121,810.928894 
    	C910.482239,810.478149 910.202332,810.097229 909.922424,809.716248 
    z"/>
    <path id="path-179" fill="#DEDEDE" stroke="none" 
    	d="
    M895.523804,819.187622 
    	C896.482666,818.272888 897.273621,817.947388 898.064575,817.621887 
    	C898.178894,818.152283 898.293213,818.682678 898.407532,819.213074 
    	C897.390320,819.400940 896.373047,819.588806 895.523804,819.187622 
    z"/>
    <path id="path-182" fill="#D2D3D3" stroke="none" 
    	d="
    M909.700073,809.744751 
    	C910.202332,810.097229 910.482239,810.478149 911.081421,811.026245 
    	C911.140930,811.449646 910.881042,811.705872 910.056458,811.777222 
    	C909.269531,811.176025 909.047302,810.759644 908.825134,810.343323 
    	C908.941345,810.037231 909.158875,809.847229 909.700073,809.744751 
    z"/>
    <path id="path-183" fill="#DEDEDE" stroke="none" 
    	d="
    M908.381470,810.560303 
    	C909.047302,810.759644 909.269531,811.176025 909.775513,811.808411 
    	C909.129944,812.254150 908.200562,812.483826 907.271240,812.713501 
    	C907.493408,812.068054 907.715576,811.422668 908.381470,810.560303 
    z"/>
    <path id="path-184" fill="#DEDEDE" stroke="none" 
    	d="
    M943.363037,788.844116 
    	C943.976318,789.060547 944.343262,789.300476 944.869324,789.831177 
    	C944.683289,790.402954 944.338074,790.684082 943.460571,790.596436 
    	C942.744507,789.979980 942.560791,789.732239 942.377014,789.484436 
    	C942.525940,789.161743 942.772522,788.956116 943.363037,788.844116 
    z"/>
    <path id="path-186" fill="#DEDEDE" stroke="none" 
    	d="
    M935.750000,794.250000 
    	C935.700012,794.533386 935.399963,794.566711 935.099976,794.599976 
    	C935.233276,794.399963 935.366577,794.199951 935.750000,794.250000 
    z"/>
    <path id="path-190" fill="#DEDEDE" stroke="none" 
    	d="
    M943.122314,790.647705 
    	C943.207764,791.199097 943.090271,791.322021 942.844482,791.485352 
    	C942.526672,791.286377 942.328064,791.038452 941.926697,790.359009 
    	C941.827576,789.774597 941.955261,789.645325 942.241943,789.512085 
    	C942.560791,789.732239 942.744507,789.979980 943.122314,790.647705 
    z"/>
    <path id="path-211" fill="#161616" stroke="none" 
    	d="
    M421.824524,837.733643 
    	C424.072266,838.554688 426.476929,839.181580 427.691315,840.737549 
    	C428.248810,841.451843 426.905884,844.734314 425.624084,845.484924 
    	C424.415466,846.192688 421.572113,845.720581 420.477661,844.682068 
    	C418.065613,842.393555 419.292358,839.914429 421.824524,837.733643 
    z"/>
    <path id="path-212" fill="#161616" stroke="none" 
    	d="
    M308.126282,784.221802 
    	C306.142334,783.703796 304.185669,783.229492 302.891998,782.036316 
    	C302.472900,781.649780 303.427399,778.917603 304.435303,778.122375 
    	C305.186279,777.529907 308.032867,778.013367 308.207336,778.566284 
    	C308.731934,780.228882 308.405518,782.159973 308.126282,784.221802 
    z"/>
    <path id="path-213" fill="#161616" stroke="none" 
    	d="
    M839.580078,837.229614 
    	C840.521118,839.350281 841.650024,841.439453 841.374634,843.323364 
    	C841.235779,844.273499 838.518494,845.479065 837.028809,845.400391 
    	C835.825073,845.336731 833.920471,843.663696 833.706360,842.459351 
    	C832.988037,838.419617 835.214050,836.706421 839.580078,837.229614 
    z"/>
    <path id="path-218" fill="#0A0A0A" stroke="none" 
    	d="
    M959.177795,784.089417 
    	C956.749512,786.599670 954.110046,787.178772 952.247803,784.559143 
    	C951.265503,783.177185 951.005737,780.201843 951.864990,778.899902 
    	C952.692444,777.646484 955.628418,776.776794 957.200623,777.235962 
    	C960.327393,778.149170 960.313782,780.997375 959.177795,784.089417 
    z"/>
  </g>

</svg>
