<svg
  id="hexagon-frame-part"
  xmlns="http://www.w3.org/2000/svg"
  version="2.0"
  viewBox="0 0 1254 1254"
  role="img"
  aria-labelledby="title desc">
  <title id="title">Hexagon Frame</title>
  <desc id="desc">The hexagonal emblem frame extracted from the Adobe converted SVG.</desc>
  <g id="background">
    <rect
      id="transparent-background"
      x="0"
      y="0"
      width="1254"
      height="1254"
      fill="none" />
  </g>
  <g id="hexagon-frame">
    <path id="path-008" fill="#E6E6E6" stroke="none" 
    	d="
    M853.727661,297.401123 
    	C904.015930,326.902374 953.986206,356.221832 1003.981140,385.499329 
    	C1006.228943,386.815704 1007.796875,387.936096 1007.781433,391.114990 
    	C1007.592285,429.937836 1007.599426,468.761627 1007.555725,507.585175 
    	C1007.554993,508.225891 1007.555542,508.866577 1007.555542,509.536316 
    	C1003.406311,511.338165 1003.372986,508.813141 1003.338745,506.069763 
    	C1002.907654,471.594818 1002.030457,437.117249 1002.273376,402.647491 
    	C1002.339111,393.320160 999.559143,388.409821 991.493896,383.752167 
    	C921.866089,343.542267 852.627014,302.659760 783.060913,262.342224 
    	C744.938354,240.247955 706.408997,218.855667 668.056946,197.157639 
    	C667.781372,197.001740 667.419983,196.997345 666.071533,196.682053 
    	C666.071533,203.403656 665.907471,209.930664 666.231567,216.433319 
    	C666.286133,217.528763 668.312134,218.759033 669.656677,219.523209 
    	C707.982300,241.305893 746.426697,262.881104 784.661926,284.820770 
    	C821.494324,305.955536 858.116089,327.457550 894.826721,348.804321 
    	C895.369934,349.120209 895.867371,349.514862 896.768250,350.136230 
    	C891.746155,351.965179 887.789917,351.853912 883.156311,349.178375 
    	C811.513855,307.810181 739.760254,266.634155 667.941956,225.571823 
    	C664.254822,223.463699 662.870972,221.287033 663.024902,217.078506 
    	C663.363037,207.835815 663.129761,198.572220 663.129761,187.978073 
    	C727.150391,224.729248 790.282410,260.970306 853.727661,297.401123 
    z"/>
    <path id="path-009" fill="#EAE9EA" stroke="none" 
    	d="
    M595.402283,218.250473 
    	C596.504211,222.541687 594.956421,224.993454 590.953613,227.282059 
    	C522.610046,266.357422 454.313019,305.515137 386.139862,344.886993 
    	C353.150696,363.939178 320.459747,383.507416 287.560181,402.715881 
    	C284.935364,404.248444 283.961761,405.771637 283.947815,408.867310 
    	C283.827637,435.519165 283.568085,462.171295 283.148285,488.820160 
    	C283.059387,494.462921 282.182068,500.096710 281.580475,505.725250 
    	C281.457275,506.877899 280.942200,507.988647 279.462128,509.000244 
    	C279.085114,502.622650 278.373383,496.244141 278.390686,489.867615 
    	C278.455688,465.899872 278.029022,441.896912 279.205994,417.976959 
    	C280.125122,399.297272 281.183990,399.184784 297.140167,389.879486 
    	C351.066437,358.430695 404.871368,326.771820 458.942078,295.573486 
    	C500.875610,271.378235 543.140808,247.757889 585.245178,223.858398 
    	C588.134399,222.218430 590.911682,220.381241 594.170532,218.463104 
    	C594.600098,218.290436 595.007385,218.395004 595.007385,218.395004 
    	C595.007385,218.395004 595.402283,218.250473 595.402283,218.250473 
    z"/>
    <path id="path-010" fill="#EAE9EA" stroke="none" 
    	d="
    M594.076965,202.955475 
    	C593.722656,201.376877 593.368408,199.798279 592.893005,197.679657 
    	C580.019653,205.091415 567.666687,212.234756 555.284546,219.327301 
    	C495.482880,253.581848 435.608276,287.709625 375.890289,322.109344 
    	C337.953827,343.962189 300.263306,366.241730 262.398987,388.220551 
    	C259.715149,389.778412 258.837738,391.529205 258.854187,394.534485 
    	C258.977448,417.032471 259.144745,439.533783 258.875702,462.029022 
    	C258.700531,476.677856 257.856354,491.320068 257.183990,505.959351 
    	C257.121857,507.312164 256.132538,508.622406 255.573715,509.952393 
    	C255.023544,508.635986 254.001068,507.322693 253.992264,506.002655 
    	C253.771194,472.839935 253.655106,439.676483 253.526596,406.513184 
    	C253.515610,403.680145 253.965744,400.772736 253.479507,398.027832 
    	C252.090332,390.185669 255.497879,386.110413 262.321136,382.203186 
    	C321.711731,348.193939 380.791473,313.642609 440.081238,279.456421 
    	C490.241241,250.534409 540.556641,221.881927 590.809326,193.120758 
    	C592.209106,192.319595 593.678101,191.639328 595.489075,190.710815 
    	C595.489075,194.748459 595.489075,198.311508 595.159668,202.280762 
    	C594.603149,202.843765 594.352051,202.933258 594.076965,202.955475 
    z"/>
    <path id="path-011" fill="#E3E3E3" stroke="none" 
    	d="
    M890.218872,888.111328 
    	C835.934814,920.004089 781.980591,951.736816 728.012268,983.445618 
    	C717.255676,989.765503 706.460815,996.021118 695.643188,1002.235840 
    	C693.985291,1003.188232 692.107422,1003.757812 690.331360,1004.504517 
    	C690.088806,1004.010376 689.846252,1003.516235 689.603638,1003.022156 
    	C726.905273,980.253662 764.099121,957.306213 801.540344,934.769653 
    	C835.327026,914.432983 869.357361,894.500305 903.330200,874.474121 
    	C934.418030,856.148499 965.522400,837.849182 996.760681,819.782471 
    	C1000.739868,817.481201 1002.109131,815.058716 1002.084473,810.515503 
    	C1001.884827,773.699463 1001.963013,736.881775 1001.956482,700.064636 
    	C1001.956177,698.257202 1001.956360,696.449768 1001.956360,694.248413 
    	C1003.823303,694.146545 1005.391052,694.061035 1007.651428,693.937744 
    	C1007.651428,696.065186 1007.650757,697.831360 1007.651611,699.597595 
    	C1007.669861,738.080139 1007.667236,776.562683 1007.751282,815.045044 
    	C1007.757263,817.772217 1007.188538,819.500061 1004.571167,821.028076 
    	C966.512329,843.247986 928.538086,865.612732 890.218872,888.111328 
    z"/>
    <path id="path-012" fill="#ECECEC" stroke="none" 
    	d="
    M568.844177,1004.102844 
    	C543.745911,989.687622 518.520264,975.488892 493.573090,960.816711 
    	C416.695618,915.603271 339.994720,870.088867 262.999908,825.076904 
    	C255.586212,820.742737 252.263062,816.909973 253.171997,807.685852 
    	C254.431122,794.908020 253.073303,781.883606 253.031357,768.964111 
    	C252.950912,744.190308 253.007950,719.416016 253.007950,694.241028 
    	C255.219711,694.121643 256.770203,694.037903 258.859039,693.925171 
    	C258.859039,696.152344 258.858490,697.938965 258.859100,699.725525 
    	C258.871613,736.542114 258.990448,773.359253 258.775604,810.174500 
    	C258.745422,815.345703 260.151917,817.796204 264.961456,820.377075 
    	C280.921173,828.941406 296.417908,838.377075 312.006073,847.623779 
    	C370.682159,882.429443 429.419922,917.132996 487.936890,952.204529 
    	C515.337830,968.627014 542.288025,985.801453 569.591125,1003.085449 
    	C569.441162,1003.724915 569.142639,1003.913879 568.844177,1004.102844 
    z"/>
    <path id="path-018" fill="#E6E6E6" stroke="none" 
    	d="
    M976.986328,417.027710 
    	C978.590637,407.849915 975.097900,402.639374 967.006958,398.867584 
    	C958.044312,394.689362 949.786987,388.998260 941.041748,383.859772 
    	C945.715942,380.677338 949.553589,381.053253 953.919312,384.038544 
    	C960.355164,388.439453 967.294067,392.101959 973.992310,396.122986 
    	C977.041382,397.953339 979.997925,399.010956 979.683594,404.233398 
    	C979.314026,410.374634 982.111328,416.645050 982.261597,422.890076 
    	C982.798035,445.185181 982.807678,467.493103 982.986755,489.796448 
    	C983.040039,496.425446 982.994995,503.055237 982.994995,510.063782 
    	C980.944458,509.909180 979.533447,509.802765 976.991333,509.611084 
    	C976.991333,478.740173 976.991333,448.130981 976.986328,417.027710 
    z"/>
    <path id="path-019" fill="#DEDEDE" stroke="none" 
    	d="
    M281.972595,630.402954 
    	C282.558655,629.438171 283.046082,628.862061 283.783783,628.147339 
    	C284.034088,635.150574 284.034088,642.292419 284.034088,650.474915 
    	C343.228760,650.474915 402.224640,650.474915 461.220520,650.474915 
    	C461.220032,651.107727 461.219543,651.740601 461.219025,652.373413 
    	C402.340271,652.373413 343.461517,652.373413 283.782806,652.373413 
    	C283.782806,658.146301 283.782806,663.080933 283.471924,668.432373 
    	C282.840332,668.869873 282.521484,668.906738 282.204498,668.959717 
    	C282.204498,663.817383 282.204498,658.675049 282.204498,652.628174 
    	C258.347870,652.628174 235.136719,652.628174 211.925552,652.628174 
    	C211.921478,651.991455 211.917389,651.354736 211.913315,650.718018 
    	C235.110352,650.718018 258.307404,650.718018 281.873932,650.718018 
    	C281.873932,643.410095 281.873932,637.100830 281.972595,630.402954 
    z"/>
    <path id="path-022" fill="#EAE9EA" stroke="none" 
    	d="
    M283.861572,717.001831 
    	C283.896118,744.112732 283.849274,770.724243 283.996887,797.334656 
    	C284.017578,801.062988 282.218689,801.777649 278.464233,801.858582 
    	C278.464233,766.043945 278.464233,730.405273 278.464233,694.303406 
    	C279.749817,694.205017 281.310913,694.085571 283.842041,693.891907 
    	C283.842041,701.678101 283.842041,709.090088 283.861572,717.001831 
    z"/>
    <path id="path-023" fill="#E3E3E3" stroke="none" 
    	d="
    M978.867920,802.678223 
    	C977.880249,802.946350 977.169861,802.959167 976.105713,802.935669 
    	C976.155273,801.378845 976.903076,799.860352 976.911377,798.337769 
    	C977.094543,764.851868 977.192078,731.365479 977.327515,697.879272 
    	C977.332397,696.667786 977.555359,695.457214 978.871521,694.107178 
    	C979.915771,698.277832 981.656616,702.412109 981.876465,706.625671 
    	C982.596375,720.423401 982.959961,734.248230 983.089722,748.066040 
    	C983.235046,763.559143 983.149780,779.060730 982.727051,794.546692 
    	C982.654602,797.202698 980.394531,799.799011 978.867920,802.678223 
    z"/>
  </g>

</svg>
