<svg
  id="music-symbols"
  xmlns="http://www.w3.org/2000/svg"
  version="2.0"
  viewBox="0 0 1254 1254"
  role="img"
  aria-labelledby="title desc">
  <title id="title">Music Symbols</title>
  <desc id="desc">The treble clef and note symbols extracted with clipping from the Adobe converted SVG.</desc>
  <g id="background">
    <rect
      id="transparent-background"
      x="0"
      y="0"
      width="1254"
      height="1254"
      fill="none" />
  </g>
  <defs>
    <clipPath id="clip-treble-clef"><rect x="90" y="485" width="135" height="215" /></clipPath>
    <clipPath id="clip-right-notes"><rect x="820" y="515" width="125" height="175" /></clipPath>
  </defs>
  <g id="music-symbols">
    <g id="clip-treble-clef-content" clip-path="url(#clip-treble-clef)">
      <path id="path-004" fill="#E3E3E3" stroke="none" 
      	d="
      M447.984497,627.532104 
      	C438.683960,627.638245 429.383545,627.826355 420.082916,627.836426 
      	C375.042755,627.885193 330.002533,627.886169 284.247925,628.094971 
      	C283.046082,628.862061 282.558655,629.438171 282.071228,630.014282 
      	C281.029205,629.296143 279.991699,627.959106 278.944427,627.951416 
      	C258.946228,627.804077 238.946884,627.812988 218.947754,627.789551 
      	C213.623932,632.323242 207.017624,636.054382 203.480545,641.706299 
      	C201.511017,644.853455 204.963593,651.170837 205.409653,656.110352 
      	C205.941467,661.999451 206.936798,668.153992 205.816757,673.814697 
      	C204.026962,682.860107 195.681717,687.794556 185.688568,687.305725 
      	C176.752884,686.868713 169.700165,681.150146 168.363266,672.839294 
      	C167.982498,670.472168 168.246460,667.820740 168.915482,665.501831 
      	C170.452805,660.173096 175.334442,656.838989 180.092819,657.382324 
      	C184.936279,657.935425 188.521729,661.980774 188.931183,667.354492 
      	C189.364792,673.045288 186.756714,676.811218 181.165298,678.554077 
      	C180.392929,678.794861 179.609146,678.998901 178.362152,680.539246 
      	C180.721710,681.597839 182.989029,683.196472 185.457413,683.618164 
      	C194.396240,685.145386 203.056030,678.234253 202.900620,668.870239 
      	C202.749741,659.778259 201.156830,650.710205 200.160019,641.280151 
      	C191.222260,642.728455 182.918365,642.988708 175.287247,638.916809 
      	C171.670166,636.986755 167.963181,634.681458 165.297302,631.662720 
      	C162.536636,628.536682 159.731110,627.730286 155.837860,627.775757 
      	C140.173737,627.958923 124.506332,627.876831 108.840233,627.846313 
      	C107.209129,627.843140 105.578629,627.531677 103.947853,627.363220 
      	C103.971626,626.761963 103.995392,626.160706 104.019165,625.559448 
      	C122.410416,625.559448 140.801651,625.559448 158.972046,625.559448 
      	C156.740280,617.493591 154.733078,610.239258 152.465744,602.044861 
      	C136.862244,602.044861 120.457176,602.044861 104.052116,602.044861 
      	C104.053070,601.520569 104.054024,600.996338 104.054985,600.472046 
      	C120.524902,600.472046 136.994827,600.472046 152.800888,600.472046 
      	C155.592194,592.453796 158.069504,585.337463 160.882355,577.257263 
      	C141.900009,577.257263 122.931068,577.257263 103.962128,577.257263 
      	C103.951385,576.632629 103.940651,576.007935 103.929916,575.383301 
      	C105.586472,575.254272 107.242744,575.017151 108.899620,575.012878 
      	C125.732346,574.969360 142.565781,574.887939 159.397430,575.018677 
      	C162.375885,575.041748 164.094360,574.035767 165.988998,571.761353 
      	C171.293701,565.393311 177.019730,559.376282 183.218887,552.512878 
      	C156.594894,552.512878 130.390839,552.512878 104.368896,552.512878 
      	C104.180153,551.476074 104.116997,551.321167 104.134941,551.176270 
      	C104.154762,551.016296 104.209366,550.772034 104.317329,550.726318 
      	C104.901070,550.479248 105.505829,550.095764 106.103737,550.095032 
      	C131.585846,550.063843 157.067993,550.068176 182.783524,550.068176 
      	C181.963531,544.011902 180.994843,538.324890 180.461014,532.597229 
      	C179.467911,521.942322 181.223679,511.708984 185.918396,502.041473 
      	C186.424332,500.999603 186.902191,499.792511 187.749832,499.096588 
      	C190.340714,496.969452 193.061707,493.622803 195.817871,493.537994 
      	C197.801285,493.476929 200.640442,497.559753 201.862335,500.337585 
      	C208.697556,515.876709 210.338074,531.690369 203.068390,547.658447 
      	C202.813065,548.219299 202.660110,548.826782 202.237045,550.061707 
      	C210.189240,550.061707 217.612518,550.064453 225.035797,550.060974 
      	C232.702271,550.057312 240.368729,550.043335 248.035202,550.041565 
      	C255.535019,550.039795 263.036102,549.963318 270.534271,550.075989 
      	C277.586578,550.181885 284.581177,549.197754 291.698822,549.854065 
      	C299.136261,550.539734 306.684479,550.028442 314.184296,550.031433 
      	C321.684113,550.034363 329.183899,550.025757 336.683716,550.022888 
      	C344.350189,550.019897 352.016693,550.016785 359.683167,550.015503 
      	C367.045624,550.014221 374.408081,550.015320 381.770538,550.015320 
      	C381.766907,550.677002 381.763275,551.338684 381.759644,552.000366 
      	C349.274292,552.000366 316.788940,552.000366 284.130188,552.000366 
      	C284.130188,560.089905 284.130188,567.196350 284.130188,574.980408 
      	C286.022980,574.980408 287.784119,574.980774 289.545258,574.980347 
      	C329.044189,574.970154 368.543091,574.956543 408.042023,574.962769 
      	C409.527283,574.963013 411.012543,575.155334 412.804321,575.849976 
      	C413.018402,576.819702 412.925964,577.197632 412.833496,577.575562 
      	C370.024048,577.575562 327.214539,577.575562 284.166748,577.575562 
      	C284.166748,585.089478 284.166748,592.184937 284.166748,600.041809 
      	C300.617645,600.041809 317.028656,600.041504 333.439697,600.041870 
      	C350.101746,600.042236 366.765747,599.884155 383.425293,600.089294 
      	C399.613464,600.288696 415.852600,599.343018 432.006470,600.618103 
      	C431.993561,601.234619 431.980652,601.851196 431.967712,602.467773 
      	C382.764404,602.467773 333.561096,602.467773 284.156006,602.467773 
      	C284.156006,610.232788 284.156006,617.351257 284.156006,625.293091 
      	C338.637817,625.293091 393.031494,625.293091 447.723938,625.850708 
      	C448.009949,626.782898 447.997223,627.157471 447.984497,627.532104 
      M200.334976,625.773560 
      	C200.914047,629.200500 201.493118,632.627441 202.299652,637.400574 
      	C205.661209,633.857727 208.077621,631.310974 210.318924,628.948853 
      	C207.675079,627.661499 205.806122,626.751526 204.769379,625.807434 
      	C207.060410,625.593323 209.351425,625.379211 211.522522,625.176331 
      	C216.414078,612.228760 207.503128,599.275024 195.204361,599.625854 
      	C196.909897,608.123840 198.601334,616.551697 200.334976,625.773560 
      M190.185318,569.342651 
      	C190.587540,571.246033 190.989746,573.149353 191.326141,574.741333 
      	C221.764084,574.741333 251.652283,574.741333 281.701538,574.741333 
      	C281.701538,567.194275 281.701538,560.096680 281.701538,552.763794 
      	C280.226532,552.656250 278.934509,552.480530 277.642395,552.480042 
      	C256.820648,552.472412 235.989807,552.850342 215.181229,552.331421 
      	C205.855942,552.098877 197.864746,552.898315 193.357819,562.349670 
      	C192.354950,564.452637 191.166916,566.467285 190.185318,569.342651 
      M250.500214,577.658386 
      	C231.092255,577.658386 211.684280,577.658386 191.817520,577.658386 
      	C192.334183,580.832703 192.801285,583.702454 193.304489,586.794128 
      	C203.873306,585.684448 211.589127,589.723267 216.941055,598.648621 
      	C217.527863,599.627319 219.741287,600.018860 221.203201,600.025391 
      	C238.847137,600.104370 256.491608,600.059509 274.135925,600.047424 
      	C276.572296,600.045776 279.008698,600.047180 281.609192,600.047180 
      	C281.609192,592.327271 281.609192,585.257629 281.609192,577.659119 
      	C271.409271,577.659119 261.454712,577.659119 250.500214,577.658386 
      M274.449158,602.538574 
      	C255.945206,602.538574 237.441238,602.538574 219.116638,602.538574 
      	C219.116638,610.534180 219.116638,617.700806 219.116638,625.010681 
      	C239.276932,625.010681 260.302551,625.010681 281.612427,625.010681 
      	C281.612427,617.475586 281.612427,610.253967 281.612427,602.534607 
      	C279.353546,602.534607 277.394653,602.534607 274.449158,602.538574 
      M175.548615,614.572510 
      	C175.340393,610.686768 175.132156,606.801025 174.920883,602.858398 
      	C173.918594,602.513550 172.681442,602.087891 171.049011,601.526245 
      	C173.637589,600.356567 176.012741,599.887451 177.520172,598.485413 
      	C181.548309,594.738953 185.203873,590.591858 189.007523,586.604004 
      	C189.405640,586.838257 189.803772,587.072510 190.201904,587.306763 
      	C189.613190,584.148865 189.024475,580.990967 188.220581,576.678772 
      	C183.696228,577.792847 178.698547,577.602600 175.909576,579.991272 
      	C169.050507,585.865784 164.294357,593.586914 162.338409,602.652710 
      	C160.106979,612.995178 161.468781,622.664490 169.328751,630.300354 
      	C177.546722,638.283997 187.362793,641.079834 198.808517,637.622681 
      	C198.233551,634.313904 197.701126,631.249878 197.039352,627.441528 
      	C188.701797,627.441528 180.407349,627.441528 172.112900,627.441528 
      	C172.114273,626.883667 172.115646,626.325867 172.117020,625.768005 
      	C174.984329,625.550842 177.851654,625.333679 180.597809,625.125671 
      	C178.962997,621.798523 177.383881,618.584778 175.548615,614.572510 
      M193.822128,541.290649 
      	C196.988785,534.616394 200.788971,528.155457 203.129486,521.203125 
      	C205.144302,515.218201 202.651764,509.905243 198.958908,508.686279 
      	C195.314941,507.483521 190.726334,510.671417 188.271561,516.560486 
      	C183.874725,527.108704 183.419373,537.930603 186.487518,549.801392 
      	C189.105438,546.777893 191.238266,544.314636 193.822128,541.290649 
      M181.121582,611.199890 
      	C179.923172,623.267456 184.589584,627.368408 196.736343,624.677429 
      	C195.438126,617.218506 194.138443,609.751282 192.853897,602.370911 
      	C185.993408,601.428650 183.592392,605.796997 181.121582,611.199890 
      z"/>
      <path id="path-007" fill="#D2D3D3" stroke="none" 
      	d="
      M1144.977295,577.711792 
      	C1124.010376,577.713318 1103.539062,577.713318 1083.396240,577.713318 
      	C1079.448853,588.485962 1086.920288,593.625854 1093.065674,599.226868 
      	C1094.059814,600.132996 1096.191895,599.989685 1097.798828,599.993958 
      	C1115.963989,600.042297 1134.129395,600.014832 1152.294678,600.041626 
      	C1153.952271,600.044067 1155.609741,600.281006 1157.267212,600.409058 
      	C1157.276733,600.964661 1157.286133,601.520325 1157.295532,602.075989 
      	C1155.668457,602.249878 1154.041748,602.570801 1152.414307,602.575134 
      	C1135.249023,602.621216 1118.083740,602.625610 1100.918457,602.622986 
      	C1090.365845,602.621338 1082.390869,610.638367 1082.515137,621.181091 
      	C1082.528687,622.326660 1082.654663,623.470886 1082.779785,625.412659 
      	C1107.654175,625.412659 1132.444092,625.412659 1157.234009,625.412659 
      	C1157.293701,625.982361 1157.353394,626.552002 1157.413086,627.121704 
      	C1155.714111,627.373352 1154.015503,627.841003 1152.316162,627.843872 
      	C1130.484619,627.880493 1108.652710,627.800293 1086.821899,627.927612 
      	C1084.951782,627.938477 1083.088989,629.215759 1080.691162,630.101074 
      	C1079.757812,626.976074 1076.108521,627.810974 1072.740356,627.814209 
      	C1063.074707,627.823608 1053.409180,627.806091 1043.743530,627.775513 
      	C1036.107300,627.751343 1029.620728,634.065613 1029.601318,641.585388 
      	C1029.594482,644.237183 1029.600220,646.889038 1029.600220,650.590027 
      	C1072.364136,650.590027 1114.847778,650.590027 1157.331299,650.590027 
      	C1157.328369,651.191223 1157.325562,651.792419 1157.322632,652.393616 
      	C1115.035156,652.393616 1072.747803,652.393616 1030.726196,652.393616 
      	C1029.830200,654.954468 1029.197632,656.762512 1028.564941,658.570618 
      	C1028.101074,658.461975 1027.637085,658.353333 1027.173096,658.244751 
      	C1026.917480,656.699524 1026.661987,655.154236 1026.342773,653.224487 
      	C1010.857605,653.224487 995.304321,653.224487 978.953125,653.224487 
      	C978.953125,660.575439 978.953125,667.875000 978.953125,675.174561 
      	C978.413635,675.188477 977.874207,675.202332 977.334717,675.216187 
      	C977.334717,667.927307 977.334717,660.638367 977.334717,652.431519 
      	C926.332031,652.431519 876.146423,652.431519 825.960815,652.431519 
      	C825.962097,651.865417 825.963440,651.299255 825.964722,650.733154 
      	C876.078064,650.733154 926.191345,650.733154 976.664734,650.733154 
      	C976.664734,642.764954 976.664734,635.538696 976.664734,627.434937 
      	C926.425537,627.434937 876.188293,627.434937 825.951111,627.434937 
      	C825.951233,626.867737 825.951355,626.300537 825.951477,625.733337 
      	C876.000305,625.733337 926.049194,625.733337 976.553955,625.733337 
      	C976.553955,617.714966 976.553955,610.507202 976.553955,602.330505 
      	C926.442505,602.330505 876.223694,602.330505 826.004883,602.330505 
      	C826.004700,601.692871 826.004517,601.055237 826.004395,600.417603 
      	C876.181763,600.417603 926.359192,600.417603 976.771606,600.417603 
      	C976.771606,592.396790 976.771606,585.325745 976.771606,577.892578 
      	C960.482605,577.892578 944.377686,577.892578 928.272766,577.892578 
      	C928.140137,577.366699 928.007446,576.840881 927.874817,576.315002 
      	C929.611267,575.855103 931.344177,575.012451 933.084717,574.996399 
      	C945.916138,574.877686 958.749023,574.923828 971.581482,574.918335 
      	C973.212769,574.917603 974.844055,574.918152 976.734802,574.918152 
      	C976.734802,567.369263 976.734802,560.290955 976.734802,552.854614 
      	C973.232666,552.854614 969.811707,552.854614 966.390747,552.854614 
      	C966.309814,552.471313 966.228821,552.088013 966.147888,551.704651 
      	C970.260315,550.487671 974.372742,549.270691 978.844849,547.947266 
      	C979.332458,548.254333 980.723572,549.885010 982.135254,549.903076 
      	C996.779175,550.090698 1011.426453,550.018494 1026.192139,550.018494 
      	C1026.644531,548.111511 1027.032227,546.477478 1027.419800,544.843384 
      	C1027.812012,544.799805 1028.204224,544.756165 1028.596558,544.712524 
      	C1029.023193,546.271545 1029.449707,547.830505 1029.964233,549.710693 
      	C1046.279907,549.710693 1062.679321,549.710693 1080.190674,549.710693 
      	C1080.190674,540.756348 1080.190674,531.927734 1080.190674,523.099121 
      	C1080.868896,523.116272 1081.547119,523.133362 1082.225342,523.150513 
      	C1082.225342,531.913147 1082.225342,540.675842 1082.225342,550.189209 
      	C1107.796631,550.189209 1132.454102,550.189209 1156.967896,550.189209 
      	C1157.118774,551.113892 1157.180786,551.276001 1157.160156,551.426697 
      	C1157.138306,551.585693 1157.076660,551.823181 1156.965088,551.871948 
      	C1156.380493,552.127380 1155.774902,552.528320 1155.176147,552.529175 
      	C1131.203003,552.562073 1107.229980,552.557129 1082.967773,552.557129 
      	C1082.967773,560.138855 1082.967773,567.211975 1082.967773,575.139648 
      	C1107.711792,575.139648 1132.494263,575.139648 1157.276733,575.139648 
      	C1157.330322,575.900757 1157.383911,576.661865 1157.437500,577.422974 
      	C1153.449341,577.518738 1149.461304,577.614563 1144.977295,577.711792 
      M1074.538208,552.568420 
      	C1059.759155,552.568420 1044.980103,552.568420 1029.978760,552.568420 
      	C1029.978760,560.283752 1029.978760,567.475220 1029.978760,574.607422 
      	C1046.735474,574.607422 1063.129272,574.607422 1079.541504,574.607422 
      	C1079.541504,567.243225 1079.541504,560.271179 1079.541504,552.999390 
      	C1078.127075,552.847473 1076.840332,552.709229 1074.538208,552.568420 
      M1026.731934,570.238770 
      	C1026.731934,564.475830 1026.731934,558.712891 1026.731934,552.784790 
      	C1010.577637,552.784790 995.146179,552.784790 979.543152,552.784790 
      	C979.543152,560.275513 979.543152,567.484009 979.543152,575.000000 
      	C994.524292,575.000000 1009.164978,574.933594 1023.804138,575.052917 
      	C1026.946411,575.078491 1026.796875,573.255554 1026.731934,570.238770 
      M1076.096436,592.345581 
      	C1081.499268,588.673889 1079.177612,583.172546 1079.611450,578.041260 
      	C1062.907959,578.041260 1046.389038,578.041260 1029.869385,578.041260 
      	C1029.869385,585.495056 1029.869385,592.557312 1029.869385,600.038391 
      	C1039.257202,600.038391 1048.383911,599.635559 1057.456421,600.164185 
      	C1064.884277,600.596985 1071.149170,599.350464 1076.096436,592.345581 
      M983.789795,577.709290 
      	C982.324524,577.807861 980.859253,577.906433 979.461426,578.000488 
      	C979.461426,585.387207 979.461426,592.470764 979.461426,599.793030 
      	C995.289551,599.793030 1010.838501,599.793030 1026.556396,599.793030 
      	C1026.556396,592.490112 1026.556396,585.382568 1026.556396,577.704102 
      	C1012.583008,577.704102 998.658508,577.704102 983.789795,577.709290 
      M1002.494812,627.792297 
      	C994.759277,627.792297 987.023743,627.792297 979.547180,627.792297 
      	C979.547180,635.752686 979.547180,642.839661 979.547180,649.931274 
      	C995.443848,649.931274 1010.994446,649.931274 1026.731567,649.931274 
      	C1026.731567,647.544434 1026.893311,645.536011 1026.692261,643.564575 
      	C1026.415405,640.849182 1026.706787,637.544861 1025.268555,635.581238 
      	C1021.381165,630.273254 1016.537720,626.021057 1008.970032,627.737061 
      	C1007.229004,628.131897 1005.322266,627.796387 1002.494812,627.792297 
      M998.498108,625.278503 
      	C1001.158997,625.268188 1003.922913,624.784363 1006.461365,625.336792 
      	C1013.893250,626.954041 1017.114502,621.264343 1021.657410,617.457703 
      	C1026.432007,613.457031 1027.827881,608.842651 1026.269043,602.915894 
      	C1010.713623,602.915894 995.182495,602.915894 979.663879,602.915894 
      	C979.663879,610.486694 979.663879,617.685852 979.663879,625.281738 
      	C985.883118,625.281738 991.691284,625.281738 998.498108,625.278503 
      M1067.476440,625.213928 
      	C1071.422852,625.213928 1075.369385,625.213928 1080.005371,625.213928 
      	C1079.647705,621.060059 1080.625366,616.490356 1078.779297,614.117432 
      	C1074.202393,608.234253 1070.039673,601.424744 1060.239136,602.374512 
      	C1050.238647,603.343750 1040.071167,602.588928 1030.258545,602.588928 
      	C1028.556763,609.545593 1030.117188,614.668213 1035.400513,618.583496 
      	C1036.985107,619.757751 1038.051392,621.659607 1039.678833,622.741028 
      	C1041.421997,623.899353 1043.522949,625.127075 1045.509888,625.201538 
      	C1052.491577,625.463196 1059.491333,625.242065 1067.476440,625.213928 
      z"/>
      <path id="path-193" fill="#080808" stroke="none" 
      	d="
      M190.124725,568.932617 
      	C191.166916,566.467285 192.354950,564.452637 193.357819,562.349670 
      	C197.864746,552.898315 205.855942,552.098877 215.181229,552.331421 
      	C235.989807,552.850342 256.820648,552.472412 277.642395,552.480042 
      	C278.934509,552.480530 280.226532,552.656250 281.701538,552.763794 
      	C281.701538,560.096680 281.701538,567.194275 281.701538,574.741333 
      	C251.652283,574.741333 221.764084,574.741333 191.326141,574.741333 
      	C190.989746,573.149353 190.587540,571.246033 190.124725,568.932617 
      z"/>
      <path id="path-194" fill="#060505" stroke="none" 
      	d="
      M251.000168,577.658752 
      	C261.454712,577.659119 271.409271,577.659119 281.609192,577.659119 
      	C281.609192,585.257629 281.609192,592.327271 281.609192,600.047180 
      	C279.008698,600.047180 276.572296,600.045776 274.135925,600.047424 
      	C256.491608,600.059509 238.847137,600.104370 221.203201,600.025391 
      	C219.741287,600.018860 217.527863,599.627319 216.941055,598.648621 
      	C211.589127,589.723267 203.873306,585.684448 193.304489,586.794128 
      	C192.801285,583.702454 192.334183,580.832703 191.817520,577.658386 
      	C211.684280,577.658386 231.092255,577.658386 251.000168,577.658752 
      z"/>
      <path id="path-195" fill="#080808" stroke="none" 
      	d="
      M274.942444,602.536621 
      	C277.394653,602.534607 279.353546,602.534607 281.612427,602.534607 
      	C281.612427,610.253967 281.612427,617.475586 281.612427,625.010681 
      	C260.302551,625.010681 239.276932,625.010681 219.116638,625.010681 
      	C219.116638,617.700806 219.116638,610.534180 219.116638,602.538574 
      	C237.441238,602.538574 255.945206,602.538574 274.942444,602.536621 
      z"/>
      <path id="path-196" fill="#0A0A0A" stroke="none" 
      	d="
      M175.676697,614.971741 
      	C177.383881,618.584778 178.962997,621.798523 180.597809,625.125671 
      	C177.851654,625.333679 174.984329,625.550842 172.117020,625.768005 
      	C172.115646,626.325867 172.114273,626.883667 172.112900,627.441528 
      	C180.407349,627.441528 188.701797,627.441528 197.039352,627.441528 
      	C197.701126,631.249878 198.233551,634.313904 198.808517,637.622681 
      	C187.362793,641.079834 177.546722,638.283997 169.328751,630.300354 
      	C161.468781,622.664490 160.106979,612.995178 162.338409,602.652710 
      	C164.294357,593.586914 169.050507,585.865784 175.909576,579.991272 
      	C178.698547,577.602600 183.696228,577.792847 188.220581,576.678772 
      	C189.024475,580.990967 189.613190,584.148865 190.201904,587.306763 
      	C189.803772,587.072510 189.405640,586.838257 189.007523,586.604004 
      	C185.203873,590.591858 181.548309,594.738953 177.520172,598.485413 
      	C176.012741,599.887451 173.637589,600.356567 171.049011,601.526245 
      	C172.681442,602.087891 173.918594,602.513550 174.920883,602.858398 
      	C175.132156,606.801025 175.340393,610.686768 175.676697,614.971741 
      z"/>
      <path id="path-197" fill="#0A0A0A" stroke="none" 
      	d="
      M193.596619,541.570984 
      	C191.238266,544.314636 189.105438,546.777893 186.487518,549.801392 
      	C183.419373,537.930603 183.874725,527.108704 188.271561,516.560486 
      	C190.726334,510.671417 195.314941,507.483521 198.958908,508.686279 
      	C202.651764,509.905243 205.144302,515.218201 203.129486,521.203125 
      	C200.788971,528.155457 196.988785,534.616394 193.596619,541.570984 
      z"/>
      <path id="path-198" fill="#0A0A0A" stroke="none" 
      	d="
      M200.292786,624.979614 
      	C198.601334,616.551697 196.909897,608.123840 195.204361,599.625854 
      	C207.503128,599.275024 216.414078,612.228760 211.522522,625.176331 
      	C209.351425,625.379211 207.060410,625.593323 204.138275,625.582520 
      	C202.435699,625.231628 201.364243,625.105591 200.292786,624.979614 
      z"/>
      <path id="path-199" fill="#0A0A0A" stroke="none" 
      	d="
      M181.252716,610.813354 
      	C183.592392,605.796997 185.993408,601.428650 192.853897,602.370911 
      	C194.138443,609.751282 195.438126,617.218506 196.736343,624.677429 
      	C184.589584,627.368408 179.923172,623.267456 181.252716,610.813354 
      z"/>
      <path id="path-200" fill="#161616" stroke="none" 
      	d="
      M200.313873,625.376587 
      	C201.364243,625.105591 202.435699,625.231628 203.722168,625.599609 
      	C205.806122,626.751526 207.675079,627.661499 210.318924,628.948853 
      	C208.077621,631.310974 205.661209,633.857727 202.299652,637.400574 
      	C201.493118,632.627441 200.914047,629.200500 200.313873,625.376587 
      z"/>
      <path id="path-201" fill="#0A0A0A" stroke="none" 
      	d="
      M1075.045898,552.569702 
      	C1076.840332,552.709229 1078.127075,552.847473 1079.541504,552.999390 
      	C1079.541504,560.271179 1079.541504,567.243225 1079.541504,574.607422 
      	C1063.129272,574.607422 1046.735474,574.607422 1029.978760,574.607422 
      	C1029.978760,567.475220 1029.978760,560.283752 1029.978760,552.568420 
      	C1044.980103,552.568420 1059.759155,552.568420 1075.045898,552.569702 
      z"/>
      <path id="path-202" fill="#0A0A0A" stroke="none" 
      	d="
      M1026.731201,570.711853 
      	C1026.796875,573.255554 1026.946411,575.078491 1023.804138,575.052917 
      	C1009.164978,574.933594 994.524292,575.000000 979.543152,575.000000 
      	C979.543152,567.484009 979.543152,560.275513 979.543152,552.784790 
      	C995.146179,552.784790 1010.577637,552.784790 1026.731934,552.784790 
      	C1026.731934,558.712891 1026.731934,564.475830 1026.731201,570.711853 
      z"/>
      <path id="path-203" fill="#060505" stroke="none" 
      	d="
      M1075.842407,592.623779 
      	C1071.149170,599.350464 1064.884277,600.596985 1057.456421,600.164185 
      	C1048.383911,599.635559 1039.257202,600.038391 1029.869385,600.038391 
      	C1029.869385,592.557312 1029.869385,585.495056 1029.869385,578.041260 
      	C1046.389038,578.041260 1062.907959,578.041260 1079.611450,578.041260 
      	C1079.177612,583.172546 1081.499268,588.673889 1075.842407,592.623779 
      z"/>
      <path id="path-204" fill="#060505" stroke="none" 
      	d="
      M984.261902,577.706665 
      	C998.658508,577.704102 1012.583008,577.704102 1026.556396,577.704102 
      	C1026.556396,585.382568 1026.556396,592.490112 1026.556396,599.793030 
      	C1010.838501,599.793030 995.289551,599.793030 979.461426,599.793030 
      	C979.461426,592.470764 979.461426,585.387207 979.461426,578.000488 
      	C980.859253,577.906433 982.324524,577.807861 984.261902,577.706665 
      z"/>
      <path id="path-205" fill="#060505" stroke="none" 
      	d="
      M1002.993286,627.794617 
      	C1005.322266,627.796387 1007.229004,628.131897 1008.970032,627.737061 
      	C1016.537720,626.021057 1021.381165,630.273254 1025.268555,635.581238 
      	C1026.706787,637.544861 1026.415405,640.849182 1026.692261,643.564575 
      	C1026.893311,645.536011 1026.731567,647.544434 1026.731567,649.931274 
      	C1010.994446,649.931274 995.443848,649.931274 979.547180,649.931274 
      	C979.547180,642.839661 979.547180,635.752686 979.547180,627.792297 
      	C987.023743,627.792297 994.759277,627.792297 1002.993286,627.794617 
      z"/>
      <path id="path-206" fill="#0A0A0A" stroke="none" 
      	d="
      M997.998779,625.280151 
      	C991.691284,625.281738 985.883118,625.281738 979.663879,625.281738 
      	C979.663879,617.685852 979.663879,610.486694 979.663879,602.915894 
      	C995.182495,602.915894 1010.713623,602.915894 1026.269043,602.915894 
      	C1027.827881,608.842651 1026.432007,613.457031 1021.657410,617.457703 
      	C1017.114502,621.264343 1013.893250,626.954041 1006.461365,625.336792 
      	C1003.922913,624.784363 1001.158997,625.268188 997.998779,625.280151 
      z"/>
      <path id="path-207" fill="#080808" stroke="none" 
      	d="
      M1066.980347,625.209045 
      	C1059.491333,625.242065 1052.491577,625.463196 1045.509888,625.201538 
      	C1043.522949,625.127075 1041.421997,623.899353 1039.678833,622.741028 
      	C1038.051392,621.659607 1036.985107,619.757751 1035.400513,618.583496 
      	C1030.117188,614.668213 1028.556763,609.545593 1030.258545,602.588928 
      	C1040.071167,602.588928 1050.238647,603.343750 1060.239136,602.374512 
      	C1070.039673,601.424744 1074.202393,608.234253 1078.779297,614.117432 
      	C1080.625366,616.490356 1079.647705,621.060059 1080.005371,625.213928 
      	C1075.369385,625.213928 1071.422852,625.213928 1066.980347,625.209045 
      z"/>
    </g>
    <g id="clip-right-notes-content" clip-path="url(#clip-right-notes)">
      <path id="path-004" fill="#E3E3E3" stroke="none" 
      	d="
      M447.984497,627.532104 
      	C438.683960,627.638245 429.383545,627.826355 420.082916,627.836426 
      	C375.042755,627.885193 330.002533,627.886169 284.247925,628.094971 
      	C283.046082,628.862061 282.558655,629.438171 282.071228,630.014282 
      	C281.029205,629.296143 279.991699,627.959106 278.944427,627.951416 
      	C258.946228,627.804077 238.946884,627.812988 218.947754,627.789551 
      	C213.623932,632.323242 207.017624,636.054382 203.480545,641.706299 
      	C201.511017,644.853455 204.963593,651.170837 205.409653,656.110352 
      	C205.941467,661.999451 206.936798,668.153992 205.816757,673.814697 
      	C204.026962,682.860107 195.681717,687.794556 185.688568,687.305725 
      	C176.752884,686.868713 169.700165,681.150146 168.363266,672.839294 
      	C167.982498,670.472168 168.246460,667.820740 168.915482,665.501831 
      	C170.452805,660.173096 175.334442,656.838989 180.092819,657.382324 
      	C184.936279,657.935425 188.521729,661.980774 188.931183,667.354492 
      	C189.364792,673.045288 186.756714,676.811218 181.165298,678.554077 
      	C180.392929,678.794861 179.609146,678.998901 178.362152,680.539246 
      	C180.721710,681.597839 182.989029,683.196472 185.457413,683.618164 
      	C194.396240,685.145386 203.056030,678.234253 202.900620,668.870239 
      	C202.749741,659.778259 201.156830,650.710205 200.160019,641.280151 
      	C191.222260,642.728455 182.918365,642.988708 175.287247,638.916809 
      	C171.670166,636.986755 167.963181,634.681458 165.297302,631.662720 
      	C162.536636,628.536682 159.731110,627.730286 155.837860,627.775757 
      	C140.173737,627.958923 124.506332,627.876831 108.840233,627.846313 
      	C107.209129,627.843140 105.578629,627.531677 103.947853,627.363220 
      	C103.971626,626.761963 103.995392,626.160706 104.019165,625.559448 
      	C122.410416,625.559448 140.801651,625.559448 158.972046,625.559448 
      	C156.740280,617.493591 154.733078,610.239258 152.465744,602.044861 
      	C136.862244,602.044861 120.457176,602.044861 104.052116,602.044861 
      	C104.053070,601.520569 104.054024,600.996338 104.054985,600.472046 
      	C120.524902,600.472046 136.994827,600.472046 152.800888,600.472046 
      	C155.592194,592.453796 158.069504,585.337463 160.882355,577.257263 
      	C141.900009,577.257263 122.931068,577.257263 103.962128,577.257263 
      	C103.951385,576.632629 103.940651,576.007935 103.929916,575.383301 
      	C105.586472,575.254272 107.242744,575.017151 108.899620,575.012878 
      	C125.732346,574.969360 142.565781,574.887939 159.397430,575.018677 
      	C162.375885,575.041748 164.094360,574.035767 165.988998,571.761353 
      	C171.293701,565.393311 177.019730,559.376282 183.218887,552.512878 
      	C156.594894,552.512878 130.390839,552.512878 104.368896,552.512878 
      	C104.180153,551.476074 104.116997,551.321167 104.134941,551.176270 
      	C104.154762,551.016296 104.209366,550.772034 104.317329,550.726318 
      	C104.901070,550.479248 105.505829,550.095764 106.103737,550.095032 
      	C131.585846,550.063843 157.067993,550.068176 182.783524,550.068176 
      	C181.963531,544.011902 180.994843,538.324890 180.461014,532.597229 
      	C179.467911,521.942322 181.223679,511.708984 185.918396,502.041473 
      	C186.424332,500.999603 186.902191,499.792511 187.749832,499.096588 
      	C190.340714,496.969452 193.061707,493.622803 195.817871,493.537994 
      	C197.801285,493.476929 200.640442,497.559753 201.862335,500.337585 
      	C208.697556,515.876709 210.338074,531.690369 203.068390,547.658447 
      	C202.813065,548.219299 202.660110,548.826782 202.237045,550.061707 
      	C210.189240,550.061707 217.612518,550.064453 225.035797,550.060974 
      	C232.702271,550.057312 240.368729,550.043335 248.035202,550.041565 
      	C255.535019,550.039795 263.036102,549.963318 270.534271,550.075989 
      	C277.586578,550.181885 284.581177,549.197754 291.698822,549.854065 
      	C299.136261,550.539734 306.684479,550.028442 314.184296,550.031433 
      	C321.684113,550.034363 329.183899,550.025757 336.683716,550.022888 
      	C344.350189,550.019897 352.016693,550.016785 359.683167,550.015503 
      	C367.045624,550.014221 374.408081,550.015320 381.770538,550.015320 
      	C381.766907,550.677002 381.763275,551.338684 381.759644,552.000366 
      	C349.274292,552.000366 316.788940,552.000366 284.130188,552.000366 
      	C284.130188,560.089905 284.130188,567.196350 284.130188,574.980408 
      	C286.022980,574.980408 287.784119,574.980774 289.545258,574.980347 
      	C329.044189,574.970154 368.543091,574.956543 408.042023,574.962769 
      	C409.527283,574.963013 411.012543,575.155334 412.804321,575.849976 
      	C413.018402,576.819702 412.925964,577.197632 412.833496,577.575562 
      	C370.024048,577.575562 327.214539,577.575562 284.166748,577.575562 
      	C284.166748,585.089478 284.166748,592.184937 284.166748,600.041809 
      	C300.617645,600.041809 317.028656,600.041504 333.439697,600.041870 
      	C350.101746,600.042236 366.765747,599.884155 383.425293,600.089294 
      	C399.613464,600.288696 415.852600,599.343018 432.006470,600.618103 
      	C431.993561,601.234619 431.980652,601.851196 431.967712,602.467773 
      	C382.764404,602.467773 333.561096,602.467773 284.156006,602.467773 
      	C284.156006,610.232788 284.156006,617.351257 284.156006,625.293091 
      	C338.637817,625.293091 393.031494,625.293091 447.723938,625.850708 
      	C448.009949,626.782898 447.997223,627.157471 447.984497,627.532104 
      M200.334976,625.773560 
      	C200.914047,629.200500 201.493118,632.627441 202.299652,637.400574 
      	C205.661209,633.857727 208.077621,631.310974 210.318924,628.948853 
      	C207.675079,627.661499 205.806122,626.751526 204.769379,625.807434 
      	C207.060410,625.593323 209.351425,625.379211 211.522522,625.176331 
      	C216.414078,612.228760 207.503128,599.275024 195.204361,599.625854 
      	C196.909897,608.123840 198.601334,616.551697 200.334976,625.773560 
      M190.185318,569.342651 
      	C190.587540,571.246033 190.989746,573.149353 191.326141,574.741333 
      	C221.764084,574.741333 251.652283,574.741333 281.701538,574.741333 
      	C281.701538,567.194275 281.701538,560.096680 281.701538,552.763794 
      	C280.226532,552.656250 278.934509,552.480530 277.642395,552.480042 
      	C256.820648,552.472412 235.989807,552.850342 215.181229,552.331421 
      	C205.855942,552.098877 197.864746,552.898315 193.357819,562.349670 
      	C192.354950,564.452637 191.166916,566.467285 190.185318,569.342651 
      M250.500214,577.658386 
      	C231.092255,577.658386 211.684280,577.658386 191.817520,577.658386 
      	C192.334183,580.832703 192.801285,583.702454 193.304489,586.794128 
      	C203.873306,585.684448 211.589127,589.723267 216.941055,598.648621 
      	C217.527863,599.627319 219.741287,600.018860 221.203201,600.025391 
      	C238.847137,600.104370 256.491608,600.059509 274.135925,600.047424 
      	C276.572296,600.045776 279.008698,600.047180 281.609192,600.047180 
      	C281.609192,592.327271 281.609192,585.257629 281.609192,577.659119 
      	C271.409271,577.659119 261.454712,577.659119 250.500214,577.658386 
      M274.449158,602.538574 
      	C255.945206,602.538574 237.441238,602.538574 219.116638,602.538574 
      	C219.116638,610.534180 219.116638,617.700806 219.116638,625.010681 
      	C239.276932,625.010681 260.302551,625.010681 281.612427,625.010681 
      	C281.612427,617.475586 281.612427,610.253967 281.612427,602.534607 
      	C279.353546,602.534607 277.394653,602.534607 274.449158,602.538574 
      M175.548615,614.572510 
      	C175.340393,610.686768 175.132156,606.801025 174.920883,602.858398 
      	C173.918594,602.513550 172.681442,602.087891 171.049011,601.526245 
      	C173.637589,600.356567 176.012741,599.887451 177.520172,598.485413 
      	C181.548309,594.738953 185.203873,590.591858 189.007523,586.604004 
      	C189.405640,586.838257 189.803772,587.072510 190.201904,587.306763 
      	C189.613190,584.148865 189.024475,580.990967 188.220581,576.678772 
      	C183.696228,577.792847 178.698547,577.602600 175.909576,579.991272 
      	C169.050507,585.865784 164.294357,593.586914 162.338409,602.652710 
      	C160.106979,612.995178 161.468781,622.664490 169.328751,630.300354 
      	C177.546722,638.283997 187.362793,641.079834 198.808517,637.622681 
      	C198.233551,634.313904 197.701126,631.249878 197.039352,627.441528 
      	C188.701797,627.441528 180.407349,627.441528 172.112900,627.441528 
      	C172.114273,626.883667 172.115646,626.325867 172.117020,625.768005 
      	C174.984329,625.550842 177.851654,625.333679 180.597809,625.125671 
      	C178.962997,621.798523 177.383881,618.584778 175.548615,614.572510 
      M193.822128,541.290649 
      	C196.988785,534.616394 200.788971,528.155457 203.129486,521.203125 
      	C205.144302,515.218201 202.651764,509.905243 198.958908,508.686279 
      	C195.314941,507.483521 190.726334,510.671417 188.271561,516.560486 
      	C183.874725,527.108704 183.419373,537.930603 186.487518,549.801392 
      	C189.105438,546.777893 191.238266,544.314636 193.822128,541.290649 
      M181.121582,611.199890 
      	C179.923172,623.267456 184.589584,627.368408 196.736343,624.677429 
      	C195.438126,617.218506 194.138443,609.751282 192.853897,602.370911 
      	C185.993408,601.428650 183.592392,605.796997 181.121582,611.199890 
      z"/>
      <path id="path-007" fill="#D2D3D3" stroke="none" 
      	d="
      M1144.977295,577.711792 
      	C1124.010376,577.713318 1103.539062,577.713318 1083.396240,577.713318 
      	C1079.448853,588.485962 1086.920288,593.625854 1093.065674,599.226868 
      	C1094.059814,600.132996 1096.191895,599.989685 1097.798828,599.993958 
      	C1115.963989,600.042297 1134.129395,600.014832 1152.294678,600.041626 
      	C1153.952271,600.044067 1155.609741,600.281006 1157.267212,600.409058 
      	C1157.276733,600.964661 1157.286133,601.520325 1157.295532,602.075989 
      	C1155.668457,602.249878 1154.041748,602.570801 1152.414307,602.575134 
      	C1135.249023,602.621216 1118.083740,602.625610 1100.918457,602.622986 
      	C1090.365845,602.621338 1082.390869,610.638367 1082.515137,621.181091 
      	C1082.528687,622.326660 1082.654663,623.470886 1082.779785,625.412659 
      	C1107.654175,625.412659 1132.444092,625.412659 1157.234009,625.412659 
      	C1157.293701,625.982361 1157.353394,626.552002 1157.413086,627.121704 
      	C1155.714111,627.373352 1154.015503,627.841003 1152.316162,627.843872 
      	C1130.484619,627.880493 1108.652710,627.800293 1086.821899,627.927612 
      	C1084.951782,627.938477 1083.088989,629.215759 1080.691162,630.101074 
      	C1079.757812,626.976074 1076.108521,627.810974 1072.740356,627.814209 
      	C1063.074707,627.823608 1053.409180,627.806091 1043.743530,627.775513 
      	C1036.107300,627.751343 1029.620728,634.065613 1029.601318,641.585388 
      	C1029.594482,644.237183 1029.600220,646.889038 1029.600220,650.590027 
      	C1072.364136,650.590027 1114.847778,650.590027 1157.331299,650.590027 
      	C1157.328369,651.191223 1157.325562,651.792419 1157.322632,652.393616 
      	C1115.035156,652.393616 1072.747803,652.393616 1030.726196,652.393616 
      	C1029.830200,654.954468 1029.197632,656.762512 1028.564941,658.570618 
      	C1028.101074,658.461975 1027.637085,658.353333 1027.173096,658.244751 
      	C1026.917480,656.699524 1026.661987,655.154236 1026.342773,653.224487 
      	C1010.857605,653.224487 995.304321,653.224487 978.953125,653.224487 
      	C978.953125,660.575439 978.953125,667.875000 978.953125,675.174561 
      	C978.413635,675.188477 977.874207,675.202332 977.334717,675.216187 
      	C977.334717,667.927307 977.334717,660.638367 977.334717,652.431519 
      	C926.332031,652.431519 876.146423,652.431519 825.960815,652.431519 
      	C825.962097,651.865417 825.963440,651.299255 825.964722,650.733154 
      	C876.078064,650.733154 926.191345,650.733154 976.664734,650.733154 
      	C976.664734,642.764954 976.664734,635.538696 976.664734,627.434937 
      	C926.425537,627.434937 876.188293,627.434937 825.951111,627.434937 
      	C825.951233,626.867737 825.951355,626.300537 825.951477,625.733337 
      	C876.000305,625.733337 926.049194,625.733337 976.553955,625.733337 
      	C976.553955,617.714966 976.553955,610.507202 976.553955,602.330505 
      	C926.442505,602.330505 876.223694,602.330505 826.004883,602.330505 
      	C826.004700,601.692871 826.004517,601.055237 826.004395,600.417603 
      	C876.181763,600.417603 926.359192,600.417603 976.771606,600.417603 
      	C976.771606,592.396790 976.771606,585.325745 976.771606,577.892578 
      	C960.482605,577.892578 944.377686,577.892578 928.272766,577.892578 
      	C928.140137,577.366699 928.007446,576.840881 927.874817,576.315002 
      	C929.611267,575.855103 931.344177,575.012451 933.084717,574.996399 
      	C945.916138,574.877686 958.749023,574.923828 971.581482,574.918335 
      	C973.212769,574.917603 974.844055,574.918152 976.734802,574.918152 
      	C976.734802,567.369263 976.734802,560.290955 976.734802,552.854614 
      	C973.232666,552.854614 969.811707,552.854614 966.390747,552.854614 
      	C966.309814,552.471313 966.228821,552.088013 966.147888,551.704651 
      	C970.260315,550.487671 974.372742,549.270691 978.844849,547.947266 
      	C979.332458,548.254333 980.723572,549.885010 982.135254,549.903076 
      	C996.779175,550.090698 1011.426453,550.018494 1026.192139,550.018494 
      	C1026.644531,548.111511 1027.032227,546.477478 1027.419800,544.843384 
      	C1027.812012,544.799805 1028.204224,544.756165 1028.596558,544.712524 
      	C1029.023193,546.271545 1029.449707,547.830505 1029.964233,549.710693 
      	C1046.279907,549.710693 1062.679321,549.710693 1080.190674,549.710693 
      	C1080.190674,540.756348 1080.190674,531.927734 1080.190674,523.099121 
      	C1080.868896,523.116272 1081.547119,523.133362 1082.225342,523.150513 
      	C1082.225342,531.913147 1082.225342,540.675842 1082.225342,550.189209 
      	C1107.796631,550.189209 1132.454102,550.189209 1156.967896,550.189209 
      	C1157.118774,551.113892 1157.180786,551.276001 1157.160156,551.426697 
      	C1157.138306,551.585693 1157.076660,551.823181 1156.965088,551.871948 
      	C1156.380493,552.127380 1155.774902,552.528320 1155.176147,552.529175 
      	C1131.203003,552.562073 1107.229980,552.557129 1082.967773,552.557129 
      	C1082.967773,560.138855 1082.967773,567.211975 1082.967773,575.139648 
      	C1107.711792,575.139648 1132.494263,575.139648 1157.276733,575.139648 
      	C1157.330322,575.900757 1157.383911,576.661865 1157.437500,577.422974 
      	C1153.449341,577.518738 1149.461304,577.614563 1144.977295,577.711792 
      M1074.538208,552.568420 
      	C1059.759155,552.568420 1044.980103,552.568420 1029.978760,552.568420 
      	C1029.978760,560.283752 1029.978760,567.475220 1029.978760,574.607422 
      	C1046.735474,574.607422 1063.129272,574.607422 1079.541504,574.607422 
      	C1079.541504,567.243225 1079.541504,560.271179 1079.541504,552.999390 
      	C1078.127075,552.847473 1076.840332,552.709229 1074.538208,552.568420 
      M1026.731934,570.238770 
      	C1026.731934,564.475830 1026.731934,558.712891 1026.731934,552.784790 
      	C1010.577637,552.784790 995.146179,552.784790 979.543152,552.784790 
      	C979.543152,560.275513 979.543152,567.484009 979.543152,575.000000 
      	C994.524292,575.000000 1009.164978,574.933594 1023.804138,575.052917 
      	C1026.946411,575.078491 1026.796875,573.255554 1026.731934,570.238770 
      M1076.096436,592.345581 
      	C1081.499268,588.673889 1079.177612,583.172546 1079.611450,578.041260 
      	C1062.907959,578.041260 1046.389038,578.041260 1029.869385,578.041260 
      	C1029.869385,585.495056 1029.869385,592.557312 1029.869385,600.038391 
      	C1039.257202,600.038391 1048.383911,599.635559 1057.456421,600.164185 
      	C1064.884277,600.596985 1071.149170,599.350464 1076.096436,592.345581 
      M983.789795,577.709290 
      	C982.324524,577.807861 980.859253,577.906433 979.461426,578.000488 
      	C979.461426,585.387207 979.461426,592.470764 979.461426,599.793030 
      	C995.289551,599.793030 1010.838501,599.793030 1026.556396,599.793030 
      	C1026.556396,592.490112 1026.556396,585.382568 1026.556396,577.704102 
      	C1012.583008,577.704102 998.658508,577.704102 983.789795,577.709290 
      M1002.494812,627.792297 
      	C994.759277,627.792297 987.023743,627.792297 979.547180,627.792297 
      	C979.547180,635.752686 979.547180,642.839661 979.547180,649.931274 
      	C995.443848,649.931274 1010.994446,649.931274 1026.731567,649.931274 
      	C1026.731567,647.544434 1026.893311,645.536011 1026.692261,643.564575 
      	C1026.415405,640.849182 1026.706787,637.544861 1025.268555,635.581238 
      	C1021.381165,630.273254 1016.537720,626.021057 1008.970032,627.737061 
      	C1007.229004,628.131897 1005.322266,627.796387 1002.494812,627.792297 
      M998.498108,625.278503 
      	C1001.158997,625.268188 1003.922913,624.784363 1006.461365,625.336792 
      	C1013.893250,626.954041 1017.114502,621.264343 1021.657410,617.457703 
      	C1026.432007,613.457031 1027.827881,608.842651 1026.269043,602.915894 
      	C1010.713623,602.915894 995.182495,602.915894 979.663879,602.915894 
      	C979.663879,610.486694 979.663879,617.685852 979.663879,625.281738 
      	C985.883118,625.281738 991.691284,625.281738 998.498108,625.278503 
      M1067.476440,625.213928 
      	C1071.422852,625.213928 1075.369385,625.213928 1080.005371,625.213928 
      	C1079.647705,621.060059 1080.625366,616.490356 1078.779297,614.117432 
      	C1074.202393,608.234253 1070.039673,601.424744 1060.239136,602.374512 
      	C1050.238647,603.343750 1040.071167,602.588928 1030.258545,602.588928 
      	C1028.556763,609.545593 1030.117188,614.668213 1035.400513,618.583496 
      	C1036.985107,619.757751 1038.051392,621.659607 1039.678833,622.741028 
      	C1041.421997,623.899353 1043.522949,625.127075 1045.509888,625.201538 
      	C1052.491577,625.463196 1059.491333,625.242065 1067.476440,625.213928 
      z"/>
      <path id="path-193" fill="#080808" stroke="none" 
      	d="
      M190.124725,568.932617 
      	C191.166916,566.467285 192.354950,564.452637 193.357819,562.349670 
      	C197.864746,552.898315 205.855942,552.098877 215.181229,552.331421 
      	C235.989807,552.850342 256.820648,552.472412 277.642395,552.480042 
      	C278.934509,552.480530 280.226532,552.656250 281.701538,552.763794 
      	C281.701538,560.096680 281.701538,567.194275 281.701538,574.741333 
      	C251.652283,574.741333 221.764084,574.741333 191.326141,574.741333 
      	C190.989746,573.149353 190.587540,571.246033 190.124725,568.932617 
      z"/>
      <path id="path-194" fill="#060505" stroke="none" 
      	d="
      M251.000168,577.658752 
      	C261.454712,577.659119 271.409271,577.659119 281.609192,577.659119 
      	C281.609192,585.257629 281.609192,592.327271 281.609192,600.047180 
      	C279.008698,600.047180 276.572296,600.045776 274.135925,600.047424 
      	C256.491608,600.059509 238.847137,600.104370 221.203201,600.025391 
      	C219.741287,600.018860 217.527863,599.627319 216.941055,598.648621 
      	C211.589127,589.723267 203.873306,585.684448 193.304489,586.794128 
      	C192.801285,583.702454 192.334183,580.832703 191.817520,577.658386 
      	C211.684280,577.658386 231.092255,577.658386 251.000168,577.658752 
      z"/>
      <path id="path-195" fill="#080808" stroke="none" 
      	d="
      M274.942444,602.536621 
      	C277.394653,602.534607 279.353546,602.534607 281.612427,602.534607 
      	C281.612427,610.253967 281.612427,617.475586 281.612427,625.010681 
      	C260.302551,625.010681 239.276932,625.010681 219.116638,625.010681 
      	C219.116638,617.700806 219.116638,610.534180 219.116638,602.538574 
      	C237.441238,602.538574 255.945206,602.538574 274.942444,602.536621 
      z"/>
      <path id="path-196" fill="#0A0A0A" stroke="none" 
      	d="
      M175.676697,614.971741 
      	C177.383881,618.584778 178.962997,621.798523 180.597809,625.125671 
      	C177.851654,625.333679 174.984329,625.550842 172.117020,625.768005 
      	C172.115646,626.325867 172.114273,626.883667 172.112900,627.441528 
      	C180.407349,627.441528 188.701797,627.441528 197.039352,627.441528 
      	C197.701126,631.249878 198.233551,634.313904 198.808517,637.622681 
      	C187.362793,641.079834 177.546722,638.283997 169.328751,630.300354 
      	C161.468781,622.664490 160.106979,612.995178 162.338409,602.652710 
      	C164.294357,593.586914 169.050507,585.865784 175.909576,579.991272 
      	C178.698547,577.602600 183.696228,577.792847 188.220581,576.678772 
      	C189.024475,580.990967 189.613190,584.148865 190.201904,587.306763 
      	C189.803772,587.072510 189.405640,586.838257 189.007523,586.604004 
      	C185.203873,590.591858 181.548309,594.738953 177.520172,598.485413 
      	C176.012741,599.887451 173.637589,600.356567 171.049011,601.526245 
      	C172.681442,602.087891 173.918594,602.513550 174.920883,602.858398 
      	C175.132156,606.801025 175.340393,610.686768 175.676697,614.971741 
      z"/>
      <path id="path-197" fill="#0A0A0A" stroke="none" 
      	d="
      M193.596619,541.570984 
      	C191.238266,544.314636 189.105438,546.777893 186.487518,549.801392 
      	C183.419373,537.930603 183.874725,527.108704 188.271561,516.560486 
      	C190.726334,510.671417 195.314941,507.483521 198.958908,508.686279 
      	C202.651764,509.905243 205.144302,515.218201 203.129486,521.203125 
      	C200.788971,528.155457 196.988785,534.616394 193.596619,541.570984 
      z"/>
      <path id="path-198" fill="#0A0A0A" stroke="none" 
      	d="
      M200.292786,624.979614 
      	C198.601334,616.551697 196.909897,608.123840 195.204361,599.625854 
      	C207.503128,599.275024 216.414078,612.228760 211.522522,625.176331 
      	C209.351425,625.379211 207.060410,625.593323 204.138275,625.582520 
      	C202.435699,625.231628 201.364243,625.105591 200.292786,624.979614 
      z"/>
      <path id="path-199" fill="#0A0A0A" stroke="none" 
      	d="
      M181.252716,610.813354 
      	C183.592392,605.796997 185.993408,601.428650 192.853897,602.370911 
      	C194.138443,609.751282 195.438126,617.218506 196.736343,624.677429 
      	C184.589584,627.368408 179.923172,623.267456 181.252716,610.813354 
      z"/>
      <path id="path-200" fill="#161616" stroke="none" 
      	d="
      M200.313873,625.376587 
      	C201.364243,625.105591 202.435699,625.231628 203.722168,625.599609 
      	C205.806122,626.751526 207.675079,627.661499 210.318924,628.948853 
      	C208.077621,631.310974 205.661209,633.857727 202.299652,637.400574 
      	C201.493118,632.627441 200.914047,629.200500 200.313873,625.376587 
      z"/>
      <path id="path-201" fill="#0A0A0A" stroke="none" 
      	d="
      M1075.045898,552.569702 
      	C1076.840332,552.709229 1078.127075,552.847473 1079.541504,552.999390 
      	C1079.541504,560.271179 1079.541504,567.243225 1079.541504,574.607422 
      	C1063.129272,574.607422 1046.735474,574.607422 1029.978760,574.607422 
      	C1029.978760,567.475220 1029.978760,560.283752 1029.978760,552.568420 
      	C1044.980103,552.568420 1059.759155,552.568420 1075.045898,552.569702 
      z"/>
      <path id="path-202" fill="#0A0A0A" stroke="none" 
      	d="
      M1026.731201,570.711853 
      	C1026.796875,573.255554 1026.946411,575.078491 1023.804138,575.052917 
      	C1009.164978,574.933594 994.524292,575.000000 979.543152,575.000000 
      	C979.543152,567.484009 979.543152,560.275513 979.543152,552.784790 
      	C995.146179,552.784790 1010.577637,552.784790 1026.731934,552.784790 
      	C1026.731934,558.712891 1026.731934,564.475830 1026.731201,570.711853 
      z"/>
      <path id="path-203" fill="#060505" stroke="none" 
      	d="
      M1075.842407,592.623779 
      	C1071.149170,599.350464 1064.884277,600.596985 1057.456421,600.164185 
      	C1048.383911,599.635559 1039.257202,600.038391 1029.869385,600.038391 
      	C1029.869385,592.557312 1029.869385,585.495056 1029.869385,578.041260 
      	C1046.389038,578.041260 1062.907959,578.041260 1079.611450,578.041260 
      	C1079.177612,583.172546 1081.499268,588.673889 1075.842407,592.623779 
      z"/>
      <path id="path-204" fill="#060505" stroke="none" 
      	d="
      M984.261902,577.706665 
      	C998.658508,577.704102 1012.583008,577.704102 1026.556396,577.704102 
      	C1026.556396,585.382568 1026.556396,592.490112 1026.556396,599.793030 
      	C1010.838501,599.793030 995.289551,599.793030 979.461426,599.793030 
      	C979.461426,592.470764 979.461426,585.387207 979.461426,578.000488 
      	C980.859253,577.906433 982.324524,577.807861 984.261902,577.706665 
      z"/>
      <path id="path-205" fill="#060505" stroke="none" 
      	d="
      M1002.993286,627.794617 
      	C1005.322266,627.796387 1007.229004,628.131897 1008.970032,627.737061 
      	C1016.537720,626.021057 1021.381165,630.273254 1025.268555,635.581238 
      	C1026.706787,637.544861 1026.415405,640.849182 1026.692261,643.564575 
      	C1026.893311,645.536011 1026.731567,647.544434 1026.731567,649.931274 
      	C1010.994446,649.931274 995.443848,649.931274 979.547180,649.931274 
      	C979.547180,642.839661 979.547180,635.752686 979.547180,627.792297 
      	C987.023743,627.792297 994.759277,627.792297 1002.993286,627.794617 
      z"/>
      <path id="path-206" fill="#0A0A0A" stroke="none" 
      	d="
      M997.998779,625.280151 
      	C991.691284,625.281738 985.883118,625.281738 979.663879,625.281738 
      	C979.663879,617.685852 979.663879,610.486694 979.663879,602.915894 
      	C995.182495,602.915894 1010.713623,602.915894 1026.269043,602.915894 
      	C1027.827881,608.842651 1026.432007,613.457031 1021.657410,617.457703 
      	C1017.114502,621.264343 1013.893250,626.954041 1006.461365,625.336792 
      	C1003.922913,624.784363 1001.158997,625.268188 997.998779,625.280151 
      z"/>
      <path id="path-207" fill="#080808" stroke="none" 
      	d="
      M1066.980347,625.209045 
      	C1059.491333,625.242065 1052.491577,625.463196 1045.509888,625.201538 
      	C1043.522949,625.127075 1041.421997,623.899353 1039.678833,622.741028 
      	C1038.051392,621.659607 1036.985107,619.757751 1035.400513,618.583496 
      	C1030.117188,614.668213 1028.556763,609.545593 1030.258545,602.588928 
      	C1040.071167,602.588928 1050.238647,603.343750 1060.239136,602.374512 
      	C1070.039673,601.424744 1074.202393,608.234253 1078.779297,614.117432 
      	C1080.625366,616.490356 1079.647705,621.060059 1080.005371,625.213928 
      	C1075.369385,625.213928 1071.422852,625.213928 1066.980347,625.209045 
      z"/>
    </g>
  </g>

</svg>
