<svg
  id="programming-text"
  xmlns="http://www.w3.org/2000/svg"
  version="2.0"
  viewBox="0 0 1254 1254"
  role="img"
  aria-labelledby="title desc">
  <title id="title">Programming Text</title>
  <desc id="desc">The assembly and C-like programming text extracted from the Adobe converted SVG.</desc>
  <g id="background">
    <rect
      id="transparent-background"
      x="0"
      y="0"
      width="1254"
      height="1254"
      fill="none" />
  </g>
  <g id="programming-text">
    <path id="path-031" fill="#161616" stroke="none" 
    	d="
    M369.873352,938.028992 
    	C370.760101,938.009949 371.646851,937.990967 373.179382,938.033569 
    	C374.384949,938.545593 374.944794,938.995972 375.504639,939.446289 
    	C371.529144,947.470703 368.339020,955.705750 368.431183,965.087341 
    	C367.042328,962.929626 365.653473,960.771912 363.678528,957.703735 
    	C362.939880,959.568970 361.886993,960.893005 362.201019,961.649841 
    	C364.359924,966.853333 360.375671,966.757996 357.426453,967.194824 
    	C355.532684,967.475342 353.527588,967.004089 350.945221,966.826782 
    	C350.945221,961.821045 350.620178,957.009216 351.043060,952.264038 
    	C351.413940,948.102295 354.042084,948.480713 355.858765,949.462830 
    	C354.956909,953.101501 354.219055,956.078430 353.393280,959.410156 
    	C358.231964,959.597229 360.014557,958.604431 360.316040,954.239380 
    	C360.483429,951.815491 363.261719,949.077393 365.545197,947.421021 
    	C368.305115,945.419067 370.501556,943.783875 369.186981,939.518921 
    	C369.551880,938.664917 369.712616,938.346924 369.873352,938.028992 
    z"/>
    <path id="path-044" fill="#080808" stroke="none" 
    	d="
    M310.519623,905.855957 
    	C311.304382,906.387573 312.089172,906.919189 312.684845,907.322693 
    	C313.013214,906.666016 313.649536,905.393433 314.623840,904.436768 
    	C315.674286,906.330444 316.386810,907.908142 317.127106,909.914673 
    	C318.026825,910.799561 318.898773,911.255676 319.890015,911.613342 
    	C320.009247,911.514893 320.255890,911.328186 320.255920,911.328186 
    	C320.023285,912.277954 319.936768,913.986938 319.536224,914.064026 
    	C313.149597,915.293213 311.995544,921.113342 308.731079,925.784180 
    	C306.384277,926.054626 304.545044,926.054626 302.614624,926.054626 
    	C302.414490,930.043091 302.244751,933.426575 302.074982,936.810059 
    	C301.425842,936.750244 300.536743,936.943054 300.165680,936.590515 
    	C297.346283,933.911682 298.914612,923.166016 302.387146,921.318970 
    	C305.663727,919.576111 308.820221,917.889221 305.069275,913.108093 
    	C304.761749,912.105713 304.792694,911.575867 305.527405,911.032410 
    	C306.697144,910.963379 307.163116,910.907837 307.804016,911.099731 
    	C308.735382,912.214111 309.491821,913.080994 310.683197,914.446411 
    	C311.286407,910.956726 306.461792,908.515625 310.519623,905.855957 
    M314.506989,910.414490 
    	C314.506989,910.414490 314.565125,910.515259 314.506989,910.414490 
    z"/>
    <path id="path-052" fill="#A2A3A2" stroke="none" 
    	d="
    M369.307068,986.222168 
    	C367.640686,987.710144 366.044434,988.812866 364.448212,989.915649 
    	C363.228882,988.149780 361.824493,986.476990 360.869629,984.578186 
    	C360.404541,983.653381 360.336670,982.020081 360.862427,981.208618 
    	C362.057983,979.363220 363.731750,977.827576 365.211151,976.166016 
    	C366.595825,977.745239 368.358002,979.141846 369.239532,980.964478 
    	C369.884857,982.298645 369.373169,984.192444 369.307068,986.222168 
    z"/>
    <path id="path-053" fill="#969696" stroke="none" 
    	d="
    M375.775574,939.570618 
    	C374.944794,938.995972 374.384949,938.545593 373.621704,938.001587 
    	C373.188751,935.118347 372.533142,932.281738 372.834839,929.550781 
    	C373.233978,925.937744 377.607666,924.208374 379.257141,926.946045 
    	C380.726654,929.385010 381.146881,932.908020 380.796204,935.803101 
    	C380.618500,937.270630 377.716766,938.408203 375.775574,939.570618 
    z"/>
    <path id="path-054" fill="#A2A3A2" stroke="none" 
    	d="
    M263.549652,1009.520264 
    	C263.654724,1014.958740 263.004303,1015.396667 255.939972,1014.845703 
    	C255.939972,1010.702881 255.939972,1006.518982 255.941132,1002.329712 
    	C262.512756,1001.277832 262.512756,1001.277832 263.549652,1009.520264 
    z"/>
    <path id="path-055" fill="#A2A3A2" stroke="none" 
    	d="
    M304.823608,911.045959 
    	C304.792694,911.575867 304.761749,912.105713 304.670654,912.888000 
    	C303.902985,912.624695 302.613617,912.141174 302.583008,911.588074 
    	C302.393890,908.167664 302.487976,904.731750 302.487976,901.117859 
    	C306.789307,900.055176 310.065308,899.930420 310.600616,905.503723 
    	C306.461792,908.515625 311.286407,910.956726 310.683197,914.446411 
    	C309.491821,913.080994 308.735382,912.214111 307.681305,910.720703 
    	C306.706543,909.620789 306.029419,909.147339 305.352295,908.673889 
    	C305.176056,909.464600 304.999847,910.255249 304.823608,911.045959 
    z"/>
    <path id="path-056" fill="#969696" stroke="none" 
    	d="
    M992.097900,1045.399414 
    	C989.805298,1045.304810 986.197998,1045.189697 986.124329,1044.618774 
    	C985.668274,1041.081787 985.424988,1037.273071 986.400208,1033.930542 
    	C986.735046,1032.782959 990.774658,1032.716187 993.121765,1032.155518 
    	C993.481812,1032.682983 993.841797,1033.210449 994.201843,1033.737793 
    	C992.630310,1035.874146 991.058716,1038.010376 989.241760,1040.480347 
    	C990.004028,1041.174927 996.920166,1039.252808 992.097900,1045.399414 
    z"/>
    <path id="path-057" fill="#969696" stroke="none" 
    	d="
    M302.109924,937.121155 
    	C302.244751,933.426575 302.414490,930.043091 302.614624,926.054626 
    	C304.545044,926.054626 306.384277,926.054626 308.582031,926.111572 
    	C311.874969,928.780579 311.105865,931.330261 308.652618,933.545288 
    	C309.541138,935.428711 310.280670,936.996277 311.020233,938.563904 
    	C310.738281,938.774902 310.456329,938.985840 310.174377,939.196838 
    	C308.693115,937.378723 307.211823,935.560608 305.239044,933.139221 
    	C304.716949,935.678528 304.376587,937.333923 303.862518,939.834167 
    	C302.973145,938.590454 302.559021,938.011353 302.109924,937.121155 
    z"/>
    <path id="path-058" fill="#8A8A8B" stroke="none" 
    	d="
    M310.090302,982.123474 
    	C310.071320,984.788208 310.257782,987.135254 310.542603,990.720642 
    	C308.549469,987.684143 307.108826,985.489319 305.249390,982.656494 
    	C304.818481,985.227478 304.479584,987.249634 304.140656,989.271851 
    	C303.605286,989.272705 303.069885,989.273560 302.534515,989.274475 
    	C302.534515,985.294861 302.372040,981.299377 302.758331,977.357605 
    	C302.802246,976.909546 306.512299,975.959717 307.487000,976.667786 
    	C308.914185,977.704651 309.405579,980.029663 310.090302,982.123474 
    z"/>
    <path id="path-061" fill="#A2A3A2" stroke="none" 
    	d="
    M285.012390,962.600281 
    	C284.089355,961.106384 283.308746,959.928040 281.919861,957.831482 
    	C281.246399,960.722961 280.824493,962.534424 280.402588,964.345886 
    	C280.083099,964.317200 279.763611,964.288574 279.444122,964.259888 
    	C279.444122,960.180542 279.444122,956.101135 279.444122,951.038391 
    	C281.604370,951.430359 284.177368,951.326477 285.930206,952.474670 
    	C286.715759,952.989197 285.602173,956.041504 285.814331,957.888916 
    	C286.054871,959.983398 286.815277,962.018250 287.573212,964.940979 
    	C286.386871,963.947571 285.770844,963.431702 285.012390,962.600281 
    z"/>
    <path id="path-062" fill="#8A8A8B" stroke="none" 
    	d="
    M310.403656,953.463745 
    	C310.371582,957.224731 310.158783,960.646423 309.937683,964.201050 
    	C308.702332,962.594482 307.283051,960.748718 305.406219,958.307861 
    	C304.750549,960.790100 304.294342,962.517334 303.838104,964.244568 
    	C303.503662,964.220947 303.169250,964.197327 302.834839,964.173706 
    	C302.834839,960.372437 302.834839,956.571228 302.834839,952.205078 
    	C305.120667,952.489563 307.671783,952.807007 310.403656,953.463745 
    z"/>
    <path id="path-063" fill="#A2A3A2" stroke="none" 
    	d="
    M891.220459,955.511108 
    	C891.218933,958.672791 891.218933,961.423157 891.218933,964.173462 
    	C890.790283,964.309082 890.361694,964.444702 889.933044,964.580322 
    	C888.403748,962.094604 886.874390,959.608826 884.955811,956.490417 
    	C884.636597,959.536926 884.397339,961.820312 884.158081,964.103699 
    	C883.871887,964.081482 883.585632,964.059326 883.299438,964.037170 
    	C883.299438,959.890930 883.299438,955.744690 883.299438,951.598450 
    	C883.617371,951.468018 883.935303,951.337524 884.253174,951.207092 
    	C885.677490,953.631104 887.101807,956.055054 888.949280,959.199341 
    	C889.169617,956.214111 889.341919,953.879517 889.514282,951.544861 
    	C889.950317,951.563477 890.386414,951.582092 890.822449,951.600708 
    	C890.955627,952.767029 891.088806,953.933411 891.220459,955.511108 
    z"/>
    <path id="path-064" fill="#969696" stroke="none" 
    	d="
    M349.210205,909.863525 
    	C350.014923,906.712769 350.982117,903.915039 352.302887,900.094482 
    	C353.019043,902.046082 353.382996,903.037842 353.964264,904.621826 
    	C354.895660,903.126831 355.533600,902.102844 356.171539,901.078857 
    	C356.635895,901.170105 357.100250,901.261414 357.564606,901.352661 
    	C356.903107,905.524170 356.241608,909.695679 355.580109,913.867188 
    	C355.126038,913.862793 354.671936,913.858459 354.217865,913.854065 
    	C353.904510,912.897888 353.591156,911.941772 353.104034,910.455505 
    	C352.245087,911.841064 351.593048,912.892883 350.639862,914.430420 
    	C350.086182,912.589355 349.729431,911.403015 349.210205,909.863525 
    z"/>
    <path id="path-065" fill="#8A8A8B" stroke="none" 
    	d="
    M955.114868,907.024658 
    	C954.977539,909.156067 954.840210,911.287476 954.702820,913.418884 
    	C954.389893,913.592346 954.077026,913.765808 953.764099,913.939270 
    	C952.256714,911.704285 950.749390,909.469360 948.957214,906.812134 
    	C948.562561,909.328735 948.249207,911.326599 947.935913,913.324463 
    	C947.582886,913.297852 947.229919,913.271240 946.876953,913.244629 
    	C946.876953,909.346008 946.876953,905.447449 946.876953,900.566284 
    	C949.039429,903.177368 950.713989,905.199402 952.724243,907.626709 
    	C952.818970,905.643738 952.815979,903.830322 953.075684,902.055481 
    	C953.120850,901.746826 954.275146,901.600464 954.939697,902.093567 
    	C955.013062,904.213562 955.063965,905.619080 955.114868,907.024658 
    z"/>
    <path id="path-066" fill="#969696" stroke="none" 
    	d="
    M337.704102,1009.738953 
    	C337.704346,1007.024109 337.704346,1004.736511 337.704346,1002.059753 
    	C341.018768,1001.790039 344.584808,1000.534180 345.860016,1004.585022 
    	C347.281250,1009.099670 343.184021,1009.321716 340.148895,1010.298767 
    	C339.910217,1011.744446 339.660797,1013.255127 339.411377,1014.765808 
    	C339.006287,1014.801941 338.601166,1014.838074 338.196075,1014.874207 
    	C338.031982,1013.304871 337.867920,1011.735474 337.704102,1009.738953 
    z"/>
    <path id="path-067" fill="#969696" stroke="none" 
    	d="
    M278.915070,928.553345 
    	C279.452515,924.207336 282.508453,925.675293 284.267761,926.181091 
    	C285.500153,926.535400 287.273254,929.593567 286.977783,929.956421 
    	C284.489746,933.011902 285.841858,935.855774 287.707031,938.814819 
    	C287.294708,938.918762 286.882385,939.022644 286.470093,939.126526 
    	C285.088104,937.334656 283.706146,935.542725 281.802795,933.074768 
    	C281.160889,935.551819 280.724945,937.234070 280.289001,938.916321 
    	C279.831726,938.902527 279.374451,938.888733 278.917175,938.874939 
    	C278.917175,935.578369 278.917175,932.281799 278.915070,928.553345 
    z"/>
    <path id="path-068" fill="#969696" stroke="none" 
    	d="
    M349.526672,980.804565 
    	C350.489777,979.253906 351.452667,978.038574 352.739929,976.413757 
    	C353.028717,977.689270 353.246765,978.652283 353.602478,980.223206 
    	C354.617462,978.901123 355.368347,977.923035 356.119263,976.944946 
    	C356.569061,977.080505 357.018890,977.216064 357.468719,977.351685 
    	C356.716827,981.456848 355.964935,985.562012 355.213043,989.667175 
    	C354.855042,989.660889 354.497009,989.654541 354.139008,989.648254 
    	C353.795258,988.817932 353.451508,987.987610 352.940155,986.752563 
    	C352.187378,987.810303 351.547638,988.709290 350.907898,989.608276 
    	C350.583588,989.567383 350.259308,989.526550 349.934998,989.485718 
    	C349.934998,987.800781 349.984131,986.113892 349.917511,984.431580 
    	C349.873932,983.330933 349.662628,982.236877 349.526672,980.804565 
    z"/>
    <path id="path-069" fill="#969696" stroke="none" 
    	d="
    M287.350800,980.767761 
    	C285.494324,982.564026 283.696350,984.003174 281.151611,986.040039 
    	C281.075562,986.398010 280.751282,987.924255 280.427002,989.450439 
    	C280.121124,989.441589 279.815277,989.432678 279.509399,989.423767 
    	C279.509399,985.365051 279.509399,981.306335 279.509399,976.741089 
    	C282.661865,976.285034 286.374603,974.870056 287.350800,980.767761 
    z"/>
    <path id="path-071" fill="#A2A3A2" stroke="none" 
    	d="
    M273.440369,926.615417 
    	C276.913818,929.858032 276.808380,933.699280 274.762756,936.769531 
    	C273.558563,938.576843 270.327911,939.033875 267.247925,940.447327 
    	C267.247925,934.751709 267.247925,930.549561 267.247925,925.729919 
    	C269.356262,925.970825 271.239410,926.186035 273.440369,926.615417 
    M272.594482,937.008850 
    	C275.663513,931.277039 274.483551,927.996155 268.909271,927.978577 
    	C268.909271,930.400879 268.957794,932.827759 268.895050,935.251770 
    	C268.836914,937.496887 269.698975,938.305481 272.594482,937.008850 
    z"/>
    <path id="path-073" fill="#969696" stroke="none" 
    	d="
    M329.977020,1015.322754 
    	C325.141144,1013.329895 323.447510,1007.176453 326.375519,1003.539124 
    	C328.349243,1001.087219 331.797455,1001.050659 333.639587,1003.461975 
    	C336.537201,1007.254822 334.873108,1013.217041 329.977020,1015.322754 
    M332.554260,1011.645142 
    	C332.670013,1010.347046 333.144592,1008.947632 332.813934,1007.775513 
    	C332.363617,1006.179321 331.298767,1004.756531 330.497437,1003.259399 
    	C329.479340,1003.912964 327.595764,1004.565369 327.594940,1005.220215 
    	C327.591644,1007.870117 328.167938,1010.520691 328.530304,1013.171021 
    	C329.750214,1012.895935 330.970093,1012.620911 332.554260,1011.645142 
    z"/>
    <path id="path-074" fill="#8A8A8B" stroke="none" 
    	d="
    M965.142090,961.636719 
    	C966.855103,962.292664 968.470947,962.570862 970.086792,962.849121 
    	C970.175049,963.211914 970.263245,963.574646 970.351501,963.937439 
    	C968.623108,964.073914 966.215637,964.972717 965.319824,964.174561 
    	C963.841736,962.857849 962.477722,960.341064 962.696045,958.526123 
    	C962.875732,957.032166 965.430298,954.761963 966.913330,954.776550 
    	C968.488464,954.791992 970.041138,957.094177 972.278687,958.961243 
    	C968.903198,960.033447 966.973999,960.646240 965.142090,961.636719 
    z"/>
    <path id="path-075" fill="#161616" stroke="none" 
    	d="
    M955.462585,907.084351 
    	C955.063965,905.619080 955.013062,904.213562 955.041138,902.392090 
    	C956.634583,902.576172 958.149231,903.176086 959.990295,904.316040 
    	C961.825317,906.388733 963.333801,907.921387 964.842285,909.454102 
    	C963.104797,910.623779 961.367310,911.793457 959.629761,912.963135 
    	C958.356628,911.023376 957.083435,909.083679 955.462585,907.084351 
    z"/>
    <path id="path-076" fill="#8A8A8B" stroke="none" 
    	d="
    M983.719360,913.949463 
    	C982.467346,912.221863 980.476074,910.303345 980.838562,909.085510 
    	C981.417664,907.139954 983.304199,904.906494 985.143616,904.280640 
    	C986.161194,903.934387 988.206909,906.609131 989.789246,907.922119 
    	C989.458618,908.368164 989.127991,908.814270 988.797363,909.260315 
    	C986.901367,909.510437 985.005432,909.760498 983.109436,910.010620 
    	C983.036682,910.393738 982.963867,910.776855 982.891113,911.159973 
    	C984.753174,911.567993 986.615234,911.975952 988.477295,912.383972 
    	C988.546204,912.661682 988.615051,912.939453 988.683960,913.217163 
    	C987.134766,913.502380 985.585510,913.787659 983.719360,913.949463 
    z"/>
    <path id="path-077" fill="#969696" stroke="none" 
    	d="
    M268.794220,900.787048 
    	C271.282562,901.618347 274.990601,902.314148 275.259644,903.684875 
    	C275.831238,906.597168 275.362610,910.277039 273.923737,912.865967 
    	C272.411865,915.586121 267.615906,914.266052 267.179016,910.851990 
    	C266.770630,907.660522 267.966034,904.263733 268.794220,900.787048 
    M269.254761,911.479858 
    	C272.166290,913.408569 273.773163,912.071228 273.930542,909.144653 
    	C274.068604,906.577576 275.330231,903.008667 271.372894,902.273560 
    	C270.675323,902.143921 269.098328,905.492371 268.356537,907.401367 
    	C268.001038,908.316223 268.647858,909.620483 269.254761,911.479858 
    z"/>
    <path id="path-078" fill="#8A8A8B" stroke="none" 
    	d="
    M944.530090,1013.761597 
    	C945.631531,1013.589111 946.388062,1013.431641 947.144653,1013.274170 
    	C947.183350,1013.730591 947.222046,1014.186951 947.260742,1014.643311 
    	C945.362549,1014.643311 942.714661,1015.407471 941.747314,1014.458557 
    	C940.402954,1013.139771 939.492737,1010.314575 939.965393,1008.555847 
    	C940.321289,1007.231873 943.166199,1005.807068 944.857422,1005.861145 
    	C946.152649,1005.902466 947.376343,1008.183960 949.576843,1010.436401 
    	C945.920105,1010.875183 944.063477,1011.097961 941.091675,1011.454529 
    	C942.640442,1012.617065 943.412842,1013.196899 944.530090,1013.761597 
    z"/>
    <path id="path-079" fill="#969696" stroke="none" 
    	d="
    M369.645874,937.782776 
    	C369.712616,938.346924 369.551880,938.664917 369.179443,939.154785 
    	C367.030060,937.027527 365.092407,934.728394 362.903107,932.130554 
    	C362.780640,930.818787 362.594879,928.828918 362.313904,925.819092 
    	C363.984192,926.148376 366.591095,926.026245 368.180969,927.238281 
    	C369.001709,927.864014 367.757233,930.882812 367.924530,932.778076 
    	C368.067352,934.395630 368.894196,935.952698 369.645874,937.782776 
    z"/>
    <path id="path-080" fill="#969696" stroke="none" 
    	d="
    M905.726807,1036.456055 
    	C907.424377,1034.882446 909.009033,1032.876587 910.751953,1032.727905 
    	C912.008118,1032.620972 913.475220,1034.987305 914.848206,1036.250488 
    	C914.607849,1036.685791 914.367554,1037.121216 914.127197,1037.556519 
    	C912.106567,1037.798828 910.085938,1038.041016 908.065308,1038.283325 
    	C907.986206,1038.723633 907.907104,1039.163940 907.828003,1039.604370 
    	C909.650330,1039.988525 911.472717,1040.372803 913.295044,1040.757080 
    	C913.359863,1040.985107 913.424744,1041.213135 913.489563,1041.441162 
    	C911.802673,1041.635132 909.583679,1042.574951 908.557495,1041.842896 
    	C907.130493,1040.824707 906.597351,1038.553589 905.726807,1036.456055 
    z"/>
    <path id="path-081" fill="#969696" stroke="none" 
    	d="
    M920.198486,1036.246338 
    	C919.695618,1035.659546 919.206177,1035.497803 918.716736,1035.335938 
    	C918.503601,1037.528564 918.290466,1039.721313 918.077393,1041.913940 
    	C917.708008,1041.900391 917.338684,1041.886719 916.969299,1041.873047 
    	C916.969299,1039.065430 916.969299,1036.257812 916.969299,1033.159912 
    	C919.816589,1032.457031 922.786926,1031.961792 925.240479,1033.581787 
    	C925.080261,1034.206665 924.920044,1034.831421 924.759888,1035.456299 
    	C924.158020,1035.113037 923.556213,1034.769775 922.574707,1034.209839 
    	C922.358398,1037.072266 922.179932,1039.434937 922.001404,1041.797729 
    	C921.516052,1041.823730 921.030701,1041.849609 920.545349,1041.875610 
    	C920.434143,1040.140869 920.322998,1038.406006 920.198486,1036.246338 
    z"/>
    <path id="path-082" fill="#969696" stroke="none" 
    	d="
    M257.362274,954.792358 
    	C258.283875,955.688843 259.221527,956.115417 259.909546,956.794800 
    	C261.329956,958.197388 262.900940,959.589905 263.779449,961.308777 
    	C264.029572,961.798218 262.223755,964.158936 261.156250,964.321899 
    	C259.229523,964.616028 257.148590,963.900452 255.132080,963.606506 
    	C255.261215,963.040161 255.390366,962.473816 255.519516,961.907471 
    	C256.719910,962.285461 257.944275,963.015991 259.113586,962.936646 
    	C260.163361,962.865295 261.152710,961.903687 261.989716,961.434998 
    	C261.010651,957.305847 251.821762,958.425659 256.872162,952.102173 
    	C258.587769,949.954163 261.580444,950.253235 263.174744,952.924500 
    	C261.097107,953.456238 259.181183,953.946594 257.362274,954.792358 
    z"/>
    <path id="path-083" fill="#969696" stroke="none" 
    	d="
    M287.541687,902.409424 
    	C286.246246,906.468628 285.056213,910.209229 283.866150,913.949768 
    	C283.358978,914.041565 282.851776,914.133301 282.344574,914.225098 
    	C280.866730,909.867432 279.388885,905.509766 277.911041,901.152100 
    	C278.390472,900.940491 278.869904,900.728821 279.349335,900.517212 
    	C280.464203,903.112488 281.579102,905.707825 283.077240,909.195312 
    	C284.117065,906.350037 284.855591,904.169312 285.769623,902.064819 
    	C285.865753,901.843506 286.996368,902.071411 287.541687,902.409424 
    z"/>
    <path id="path-084" fill="#969696" stroke="none" 
    	d="
    M261.428894,907.613770 
    	C259.866608,907.963867 258.655243,908.172424 256.845825,908.484009 
    	C256.800995,909.129517 256.678864,910.888123 256.556732,912.646729 
    	C256.418457,912.637817 256.280212,912.628906 256.141937,912.619995 
    	C256.141937,909.323730 256.141937,906.027405 256.141937,902.731140 
    	C256.461945,902.660645 256.781952,902.590149 257.101959,902.519653 
    	C257.863373,903.662048 258.624786,904.804443 259.485748,906.096130 
    	C260.575775,904.109314 261.556885,902.320984 262.538025,900.532654 
    	C262.855743,900.593811 263.173431,900.655029 263.491150,900.716187 
    	C263.491150,905.006409 263.491150,909.296692 263.491150,913.586914 
    	C263.155182,913.644043 262.819214,913.701111 262.483246,913.758179 
    	C262.248779,911.662903 262.014313,909.567566 261.428894,907.613770 
    z"/>
    <path id="path-085" fill="#8A8A8B" stroke="none" 
    	d="
    M275.445435,1012.093140 
    	C275.341705,1013.097046 275.265747,1013.730591 275.074127,1015.328491 
    	C272.942444,1012.383850 271.304413,1010.121094 269.374390,1007.455017 
    	C269.125153,1010.024719 268.894440,1012.403503 268.663727,1014.782288 
    	C268.307983,1014.785522 267.952209,1014.788757 267.596436,1014.791992 
    	C267.596436,1010.700195 267.596436,1006.608459 267.596436,1001.735596 
    	C269.923676,1004.904907 271.938995,1007.649475 274.819275,1011.571960 
    	C275.137390,1007.922913 275.339844,1005.600891 275.473236,1004.070679 
    	C275.473236,1006.093872 275.473236,1008.908325 275.445435,1012.093140 
    z"/>
    <path id="path-087" fill="#969696" stroke="none" 
    	d="
    M916.909058,1010.110107 
    	C917.367188,1006.758301 919.123962,1004.939209 922.021545,1005.774780 
    	C923.568115,1006.220703 924.667725,1008.216797 926.963501,1010.503967 
    	C923.195618,1010.864380 921.265747,1011.049011 919.335876,1011.233643 
    	C919.189758,1011.666687 919.043579,1012.099731 918.897400,1012.532776 
    	C920.660706,1013.072327 922.424011,1013.611816 923.898865,1014.063110 
    	C920.433899,1016.658875 918.242432,1015.685242 916.909058,1010.110107 
    z"/>
    <path id="path-088" fill="#969696" stroke="none" 
    	d="
    M955.214355,1037.922119 
    	C954.723877,1038.787964 954.627319,1039.665039 954.530762,1040.541992 
    	C955.888062,1040.541992 957.245300,1040.541992 958.602539,1040.541992 
    	C958.625732,1040.930908 958.648987,1041.319824 958.672180,1041.708740 
    	C956.825073,1041.708740 954.529175,1042.376221 953.257019,1041.520996 
    	C951.984863,1040.665894 951.096069,1038.233154 951.236389,1036.594360 
    	C951.354797,1035.212280 952.960754,1033.399780 954.334900,1032.856323 
    	C955.471619,1032.406860 957.354431,1033.316162 958.659302,1034.058228 
    	C959.250427,1034.394531 959.617554,1036.491455 959.445557,1036.582764 
    	C958.261292,1037.211548 956.907532,1037.520996 955.214355,1037.922119 
    z"/>
    <path id="path-089" fill="#8A8A8B" stroke="none" 
    	d="
    M941.955078,930.973389 
    	C943.703857,929.307861 945.452698,927.642273 947.566528,925.629028 
    	C947.566528,929.882385 947.566528,934.010437 947.566528,939.410522 
    	C945.174622,938.838989 941.838806,938.994446 940.686707,937.484070 
    	C939.648682,936.123230 941.003235,932.937439 941.676880,931.135254 
    	C942.229919,933.530579 942.356995,935.357300 942.705261,937.140869 
    	C942.728088,937.257874 945.103943,937.307495 945.251160,936.937317 
    	C945.769470,935.633911 946.405701,933.771912 945.836121,932.807312 
    	C945.234070,931.787659 943.304749,931.551758 941.955078,930.973389 
    z"/>
    <path id="path-090" fill="#8A8A8B" stroke="none" 
    	d="
    M902.284302,938.274292 
    	C901.605713,937.988098 900.751404,937.400024 900.605896,936.670532 
    	C900.261536,934.944763 900.254150,933.151794 900.088135,931.110413 
    	C894.139709,931.541931 897.808472,936.953308 894.627197,939.617188 
    	C894.417297,935.987488 894.248047,933.060852 894.079773,930.151733 
    	C902.470337,928.987427 902.470337,928.987427 902.284302,938.274292 
    z"/>
    <path id="path-091" fill="#969696" stroke="none" 
    	d="
    M285.455688,1015.100464 
    	C283.241852,1015.137024 281.453827,1015.137024 279.343323,1015.137024 
    	C279.343323,1010.530029 279.343323,1006.441772 279.343323,1002.143799 
    	C281.941132,1002.143799 284.427185,1002.143799 287.342560,1002.143799 
    	C284.945526,1003.311523 283.073212,1004.223572 281.200928,1005.135681 
    	C282.474304,1006.243896 283.747681,1007.352051 285.231476,1008.643372 
    	C283.288177,1009.210510 279.529999,1009.047424 281.730713,1013.531677 
    	C282.950226,1013.653992 284.395477,1013.794373 285.838989,1013.950867 
    	C285.983795,1013.966553 286.245148,1014.118652 286.238129,1014.141357 
    	C286.141266,1014.455627 286.006775,1014.758362 285.455688,1015.100464 
    z"/>
    <path id="path-092" fill="#8A8A8B" stroke="none" 
    	d="
    M941.963135,1033.992676 
    	C943.739807,1032.427124 945.516541,1030.861694 947.468018,1029.142090 
    	C947.468018,1032.827026 947.468018,1036.934937 947.468018,1042.259644 
    	C945.187317,1041.706299 941.921692,1041.833862 940.586182,1040.290771 
    	C939.570435,1039.117188 941.007385,1035.820801 941.662231,1034.142822 
    	C941.833252,1035.454834 941.448425,1036.163086 941.605896,1036.717163 
    	C941.984314,1038.048950 942.548828,1039.347534 943.236389,1040.545898 
    	C943.319031,1040.689941 945.163818,1040.272949 945.268127,1039.874268 
    	C945.660522,1038.374878 946.154053,1036.585693 945.643433,1035.284180 
    	C945.333557,1034.494019 943.249939,1034.399658 941.963135,1033.992676 
    z"/>
    <path id="path-093" fill="#8A8A8B" stroke="none" 
    	d="
    M320.962524,937.574463 
    	C319.475647,938.491333 317.625977,939.227539 315.776276,939.963745 
    	C318.490051,935.038391 318.321320,930.439880 314.596558,927.710266 
    	C315.995789,926.988159 317.220428,926.356079 318.946014,925.465515 
    	C319.544617,929.783203 320.072174,933.588562 320.962524,937.574463 
    z"/>
    <path id="path-094" fill="#8A8A8B" stroke="none" 
    	d="
    M887.189453,1007.324585 
    	C888.524841,1008.042847 889.496521,1008.722900 890.468262,1009.402954 
    	C890.791809,1008.405273 891.115479,1007.407532 891.439087,1006.409851 
    	C891.552979,1006.412537 891.666870,1006.415161 891.780762,1006.417847 
    	C891.256897,1009.260010 890.733093,1012.102173 889.938782,1016.411621 
    	C888.372498,1014.004272 887.734070,1013.022888 886.870361,1011.695435 
    	C886.133911,1013.004639 885.552185,1014.038879 884.130066,1016.566956 
    	C883.187988,1012.194214 882.554504,1009.254150 881.921082,1006.314087 
    	C882.335327,1006.176941 882.749634,1006.039856 883.163879,1005.902710 
    	C883.637207,1007.062683 884.110596,1008.222656 884.665283,1009.581909 
    	C885.376038,1008.826721 886.100952,1008.056580 887.189453,1007.324585 
    z"/>
    <path id="path-095" fill="#8A8A8B" stroke="none" 
    	d="
    M378.730560,955.551270 
    	C377.128967,954.450195 375.436798,953.717102 373.312286,952.796692 
    	C374.494446,950.936279 376.902618,949.918396 379.160370,951.850220 
    	C383.857849,955.869507 378.204346,958.273682 377.040741,961.833252 
    	C378.171387,962.365662 379.371368,962.930725 382.047241,964.190796 
    	C378.145569,964.190796 375.672302,964.190796 372.279938,964.190796 
    	C374.610687,961.159546 376.625336,958.539368 378.730560,955.551270 
    M376.556854,962.678406 
    	C376.641876,962.512085 376.726898,962.345703 376.811890,962.179443 
    	C376.625214,962.211975 376.438538,962.244568 376.556854,962.678406 
    z"/>
    <path id="path-097" fill="#BBBCBB" stroke="none" 
    	d="
    M272.928162,982.854492 
    	C271.745880,983.527466 270.563629,984.200500 268.361115,985.454163 
    	C268.337311,985.724182 268.185303,987.447388 268.033295,989.170593 
    	C267.738708,989.165710 267.444092,989.160767 267.149506,989.155884 
    	C267.149506,985.015137 267.149506,980.874451 267.149506,976.002808 
    	C269.027832,978.318054 270.451630,980.073059 272.216339,981.627563 
    	C272.680878,981.902893 272.804535,982.378723 272.928162,982.854492 
    z"/>
    <path id="path-098" fill="#8A8A8B" stroke="none" 
    	d="
    M366.811829,906.147217 
    	C367.237396,908.806763 367.663818,911.040405 368.167603,913.679565 
    	C367.011200,913.679565 364.762207,913.679565 362.373810,913.679565 
    	C365.581665,909.731201 365.530945,905.445496 362.014923,902.191956 
    	C363.432709,901.582458 364.672211,901.049683 366.483826,900.270935 
    	C366.619080,902.512756 366.715881,904.117004 366.811829,906.147217 
    z"/>
    <path id="path-099" fill="#969696" stroke="none" 
    	d="
    M317.477417,982.184143 
    	C316.814789,980.514771 316.155334,979.279846 315.386932,977.840881 
    	C316.289337,977.387695 317.414215,976.822754 318.966003,976.043457 
    	C319.595764,980.742310 320.177856,985.085449 320.778046,989.563660 
    	C319.592834,989.563660 317.394379,989.563660 315.972229,989.563660 
    	C316.497894,987.143311 316.989227,984.880981 317.477417,982.184143 
    z"/>
    <path id="path-100" fill="#8A8A8B" stroke="none" 
    	d="
    M909.027100,927.180481 
    	C910.366638,928.247437 911.398071,929.133545 912.305847,929.913513 
    	C911.533813,931.258240 909.959717,932.814819 909.932983,934.397522 
    	C909.908752,935.827759 911.575500,937.286438 912.805420,939.217468 
    	C910.203674,940.169861 908.249512,939.656189 907.688538,935.875061 
    	C907.399597,933.928040 906.977295,932.000671 906.496338,929.427979 
    	C906.856750,929.034119 907.787781,928.016907 909.027100,927.180481 
    z"/>
    <path id="path-101" fill="#A2A3A2" stroke="none" 
    	d="
    M319.616699,956.216675 
    	C319.954803,959.159912 320.291229,961.663147 320.657166,964.386292 
    	C319.587189,964.386292 317.693756,964.386292 315.886871,964.386292 
    	C316.451843,962.487610 317.413818,960.600586 317.469635,958.687073 
    	C317.525024,956.788391 316.667999,954.863098 316.065186,952.338135 
    	C316.282623,952.214233 317.364197,951.597961 319.183105,950.561646 
    	C319.359528,952.692200 319.487244,954.234436 319.616699,956.216675 
    z"/>
    <path id="path-102" fill="#8A8A8B" stroke="none" 
    	d="
    M388.798828,957.142700 
    	C388.323578,954.677307 387.848877,952.665466 387.183228,949.844482 
    	C388.843445,949.314941 390.862030,949.262756 390.820129,953.285156 
    	C390.781982,956.948730 390.776123,960.612915 390.787903,964.276733 
    	C390.798737,967.639648 389.004761,968.084229 387.387726,967.642822 
    	C387.898956,964.004333 388.349152,960.800293 388.798828,957.142700 
    z"/>
    <path id="path-103" fill="#A2A3A2" stroke="none" 
    	d="
    M876.631165,1041.686279 
    	C875.348450,1043.500122 874.232239,1044.982300 873.116028,1046.464478 
    	C872.506042,1046.212402 871.896057,1045.960327 871.286133,1045.708130 
    	C878.194763,1041.351929 871.345764,1037.182251 872.640930,1032.535034 
    	C873.590820,1034.593262 874.540771,1036.651367 875.677551,1039.114502 
    	C876.828064,1036.695679 877.767456,1034.720581 878.706909,1032.745605 
    	C879.146118,1032.921997 879.585327,1033.098389 880.024536,1033.274780 
    	C878.948914,1035.968018 877.873291,1038.661255 876.631165,1041.686279 
    z"/>
    <path id="path-104" fill="#969696" stroke="none" 
    	d="
    M901.006348,956.960510 
    	C901.428894,958.756653 902.746887,961.151123 902.047607,962.197632 
    	C901.171326,963.508972 897.976379,964.775879 896.975769,964.150879 
    	C895.425171,963.182434 894.029053,960.525574 894.181519,958.720947 
    	C894.306824,957.238159 896.626770,955.686523 898.297119,954.729309 
    	C898.866821,954.402771 900.419495,955.791260 900.827698,956.675171 
    	C897.367188,955.656738 895.852173,956.886475 895.864624,959.582642 
    	C895.869934,960.734924 897.225464,961.881104 897.967529,963.030029 
    	C898.975403,961.663452 900.064148,960.346252 900.945740,958.902527 
    	C901.239075,958.421997 901.001282,957.617065 901.006348,956.960510 
    z"/>
    <path id="path-105" fill="#969696" stroke="none" 
    	d="
    M261.337585,978.300659 
    	C255.360291,978.085266 256.660522,982.452515 257.299133,985.156799 
    	C257.645203,986.622375 260.760834,987.434021 262.722076,988.596924 
    	C263.007385,988.331787 262.100372,989.718506 261.550201,989.589111 
    	C259.510071,989.109009 256.133362,988.421448 255.903992,987.280212 
    	C255.307449,984.311890 255.684708,980.925720 256.615356,978.006470 
    	C256.899017,977.116699 260.239258,977.142395 262.199402,976.941223 
    	C262.386353,976.922058 262.714569,978.278992 262.977203,978.997070 
    	C262.545776,978.820251 262.114349,978.643494 261.337585,978.300659 
    z"/>
    <path id="path-107" fill="#8A8A8B" stroke="none" 
    	d="
    M922.498291,954.967163 
    	C923.872864,956.347107 924.867371,957.615784 925.999207,959.059631 
    	C922.747070,960.170471 920.322815,960.998535 917.690979,961.897522 
    	C915.594910,957.715637 916.533447,955.851990 922.498291,954.967163 
    z"/>
    <path id="path-108" fill="#8A8A8B" stroke="none" 
    	d="
    M307.645477,1013.832886 
    	C308.804932,1013.920776 309.553497,1014.006592 310.302063,1014.092407 
    	C310.298065,1014.327454 310.294067,1014.562561 310.290100,1014.797607 
    	C307.956146,1014.797607 305.622223,1014.797607 303.220306,1014.797607 
    	C303.220306,1010.573792 303.220306,1006.312195 303.220306,1002.050537 
    	C303.733826,1002.047729 304.247375,1002.044922 304.760895,1002.042114 
    	C304.760895,1004.891663 304.525574,1007.770447 304.873779,1010.576843 
    	C305.018250,1011.741150 306.410034,1012.750793 307.645477,1013.832886 
    z"/>
    <path id="path-109" fill="#969696" stroke="none" 
    	d="
    M865.200073,1010.881104 
    	C865.871826,1012.462402 866.543335,1013.652954 867.300720,1014.995728 
    	C865.622681,1014.995728 863.728882,1014.995728 862.452393,1014.995728 
    	C862.452393,1010.695801 862.452393,1006.379883 862.452393,1000.847046 
    	C863.554749,1002.329163 864.837830,1003.341064 865.098145,1004.569641 
    	C865.499756,1006.465271 865.201294,1008.509277 865.200073,1010.881104 
    z"/>
    <path id="path-110" fill="#8A8A8B" stroke="none" 
    	d="
    M916.229492,914.184692 
    	C912.222656,912.349182 910.897095,909.518188 913.271606,906.089844 
    	C915.090942,903.463074 917.762756,903.144714 920.927979,906.095703 
    	C917.970642,906.679565 913.609131,904.740967 914.404724,909.457764 
    	C914.631409,910.802124 917.646423,911.676270 919.657227,912.938171 
    	C919.121643,913.166260 917.840088,913.711975 916.229492,914.184692 
    z"/>
    <path id="path-111" fill="#161616" stroke="none" 
    	d="
    M977.842468,904.747009 
    	C977.138184,907.828003 980.615295,911.872742 975.435303,913.714966 
    	C975.424988,912.953369 975.692322,912.463013 976.138489,911.935913 
    	C976.226196,911.948975 976.135010,911.998718 975.617554,912.009277 
    	C973.776367,911.994263 972.361328,912.018494 970.946350,912.042725 
    	C970.946350,912.042725 971.000000,912.000000 971.051819,911.601318 
    	C969.441772,904.971252 974.975098,906.250549 977.842468,904.747009 
    z"/>
    <path id="path-112" fill="#8A8A8B" stroke="none" 
    	d="
    M903.067200,907.282959 
    	C903.674622,909.144897 904.288635,910.583679 904.902710,912.022461 
    	C905.598511,911.290833 906.737793,910.643494 906.896362,909.809631 
    	C907.212524,908.147400 906.989990,906.382690 906.989990,904.660339 
    	C907.539978,904.632996 908.089905,904.605652 908.639893,904.578308 
    	C908.825745,907.278381 909.011536,909.978455 909.272034,913.762756 
    	C906.631653,913.535950 903.203979,914.144226 902.423523,912.979065 
    	C900.976746,910.819275 901.077209,907.622986 900.533264,904.858398 
    	C901.052734,904.713623 901.572205,904.568848 902.091614,904.424072 
    	C902.419067,905.235962 902.746460,906.047852 903.067200,907.282959 
    z"/>
    <path id="path-113" fill="#A2A3A2" stroke="none" 
    	d="
    M966.619385,1033.965332 
    	C966.455078,1034.720581 966.444763,1035.586304 966.847290,1036.164917 
    	C967.892639,1037.667480 970.382202,1039.837891 970.066467,1040.339722 
    	C968.187988,1043.326172 965.625061,1042.564697 962.063721,1040.222900 
    	C964.939087,1040.222900 966.675232,1040.222900 968.194519,1040.222900 
    	C966.471558,1037.880737 964.979675,1035.852783 963.487793,1033.824707 
    	C965.447021,1033.410400 967.406250,1032.996094 969.365479,1032.581909 
    	C969.424072,1033.081543 969.482605,1033.581055 969.541138,1034.080688 
    	C968.681274,1034.035522 967.821411,1033.990356 966.619385,1033.965332 
    z"/>
    <path id="path-114" fill="#969696" stroke="none" 
    	d="
    M830.859802,979.859863 
    	C832.556274,985.242432 831.043152,991.028564 828.496094,992.129028 
    	C828.496094,986.903870 828.496094,981.327332 828.496094,974.547424 
    	C829.476624,976.610168 830.157104,978.041748 830.859802,979.859863 
    z"/>
    <path id="path-116" fill="#969696" stroke="none" 
    	d="
    M865.178101,1040.478638 
    	C865.045410,1039.515625 864.513611,1038.791504 864.002014,1038.053345 
    	C863.039673,1036.664673 862.089111,1035.267700 861.133545,1033.874268 
    	C863.089172,1033.403198 865.044739,1032.932129 867.000305,1032.461060 
    	C867.079529,1033.012329 867.158691,1033.563599 867.237854,1034.114746 
    	C865.813965,1034.204468 864.390015,1034.294067 863.434265,1034.354248 
    	C864.888733,1036.489136 867.895142,1039.272095 867.361572,1040.445557 
    	C866.107117,1043.204590 863.160706,1042.782471 860.064270,1040.098145 
    	C862.216736,1040.377441 863.502441,1040.544312 865.178101,1040.478638 
    z"/>
    <path id="path-117" fill="#8A8A8B" stroke="none" 
    	d="
    M928.483032,903.794373 
    	C929.565674,904.045349 930.346436,904.146912 930.591431,904.178711 
    	C929.633423,906.136230 928.255310,907.900513 928.058167,909.788147 
    	C927.955994,910.767029 929.944214,911.964172 932.179688,914.316772 
    	C929.586853,913.598206 926.818848,913.347900 926.730957,912.721497 
    	C926.226562,909.126587 923.228882,905.371887 926.905884,901.285156 
    	C927.454468,902.300171 927.817871,902.972534 928.483032,903.794373 
    z"/>
    <path id="path-118" fill="#8A8A8B" stroke="none" 
    	d="
    M1044.684692,1015.286987 
    	C1044.641479,1012.225281 1045.137573,1009.192322 1045.188232,1006.151978 
    	C1045.210693,1004.792480 1044.338745,1003.418091 1044.224854,1001.106445 
    	C1045.187256,1002.088013 1046.758545,1002.948608 1046.982788,1004.076904 
    	C1047.425293,1006.304199 1046.935547,1008.701233 1047.199219,1010.985596 
    	C1047.347534,1012.271545 1048.229614,1013.472900 1049.048340,1015.312805 
    	C1048.043457,1015.312805 1046.543091,1015.312805 1044.684692,1015.286987 
    z"/>
    <path id="path-119" fill="#8A8A8B" stroke="none" 
    	d="
    M388.835022,929.427185 
    	C388.672363,927.749207 388.512634,926.520630 388.352875,925.292053 
    	C388.616241,925.116455 388.879608,924.940857 389.142975,924.765259 
    	C389.688354,925.705078 390.656677,926.623901 390.704498,927.588379 
    	C390.892334,931.377991 390.749207,935.182495 390.807983,938.980347 
    	C390.861481,942.438843 388.924255,942.566528 386.080902,941.916809 
    	C390.753113,938.548279 388.158295,933.871338 388.835022,929.427185 
    z"/>
    <path id="path-120" fill="#969696" stroke="none" 
    	d="
    M996.843018,1008.262817 
    	C998.689331,1007.119324 1000.525818,1005.947632 1002.376770,1005.924255 
    	C1003.223450,1005.913513 1004.556824,1008.065552 1004.846497,1009.413574 
    	C1005.219421,1011.148682 1004.765869,1013.061340 1004.668274,1014.897583 
    	C1004.179749,1014.899414 1003.691223,1014.901245 1003.202698,1014.903076 
    	C1003.010681,1012.460632 1002.818604,1010.018188 1002.587891,1007.084900 
    	C996.776184,1007.459595 1000.247864,1012.748779 997.322632,1015.533508 
    	C997.129211,1012.801147 996.984192,1010.752380 996.843018,1008.262817 
    z"/>
    <path id="path-121" fill="#A2A3A2" stroke="none" 
    	d="
    M1009.154053,1005.883179 
    	C1009.870239,1004.998840 1010.317261,1004.314148 1010.838135,1003.516235 
    	C1012.186279,1004.497925 1013.530762,1005.476929 1014.090820,1005.884766 
    	C1013.354370,1007.730774 1012.125916,1009.399414 1012.232483,1010.977905 
    	C1012.321899,1012.303589 1013.967163,1013.524231 1014.783691,1014.605896 
    	C1011.528931,1015.691101 1010.648376,1015.156494 1010.129517,1011.353271 
    	C1009.886658,1009.572998 1009.310059,1007.838257 1009.154053,1005.883179 
    z"/>
    <path id="path-122" fill="#8A8A8B" stroke="none" 
    	d="
    M931.782227,935.559204 
    	C931.352661,933.369263 930.905090,931.556641 930.390381,929.472107 
    	C933.121094,928.589478 933.671570,930.369690 933.836243,933.129211 
    	C933.949951,935.035767 934.711487,936.903748 935.268127,939.127075 
    	C933.704773,939.127075 931.729126,939.127075 929.276978,939.127075 
    	C930.315430,937.794983 931.039856,936.865784 931.782227,935.559204 
    z"/>
    <path id="path-123" fill="#8A8A8B" stroke="none" 
    	d="
    M882.112305,902.938782 
    	C883.201538,903.724976 884.201355,904.156860 884.540222,904.303223 
    	C883.699707,906.387634 882.533020,908.257690 882.347412,910.220459 
    	C882.267700,911.063354 884.225403,912.098877 885.161621,912.958862 
    	C882.788147,914.610291 881.254089,914.346985 880.462769,911.505371 
    	C879.837402,909.259827 879.548035,906.920593 879.004028,904.070801 
    	C879.594238,903.780212 880.808533,903.182312 882.112305,902.938782 
    z"/>
    <path id="path-124" fill="#969696" stroke="none" 
    	d="
    M1004.463745,1033.987305 
    	C1004.703857,1036.786743 1004.703857,1039.250854 1004.703857,1041.715088 
    	C1004.266296,1041.735229 1003.828735,1041.755371 1003.391113,1041.775513 
    	C1003.084045,1039.326538 1002.776917,1036.877441 1002.447205,1034.248169 
    	C996.376160,1034.189697 1000.641602,1040.019775 997.186890,1042.175903 
    	C997.015320,1039.022339 996.867249,1036.300903 996.664368,1032.572021 
    	C999.500671,1032.977173 1001.862183,1033.314575 1004.463745,1033.987305 
    z"/>
    <path id="path-125" fill="#969696" stroke="none" 
    	d="
    M907.587036,1014.040283 
    	C909.329102,1009.832520 909.919495,1005.859497 907.222595,1002.154175 
    	C910.635925,1001.563171 910.591675,1001.565796 910.793579,1004.980225 
    	C910.990173,1008.307007 911.290100,1011.627686 911.576965,1015.372803 
    	C910.631409,1015.117615 908.936096,1014.660034 907.587036,1014.040283 
    z"/>
    <path id="path-126" fill="#8A8A8B" stroke="none" 
    	d="
    M935.164062,1011.214355 
    	C934.354919,1012.713135 933.677795,1013.873779 932.233215,1016.349670 
    	C930.445496,1012.135803 929.239136,1009.292297 928.032837,1006.448853 
    	C928.479614,1006.204102 928.926392,1005.959412 929.373169,1005.714661 
    	C930.442200,1007.651917 931.511292,1009.589111 932.553223,1011.477295 
    	C933.543640,1009.589355 934.611877,1007.552979 935.680115,1005.516663 
    	C936.134888,1005.719543 936.589661,1005.922424 937.044434,1006.125305 
    	C936.461609,1007.708923 935.878845,1009.292603 935.164062,1011.214355 
    z"/>
    <path id="path-130" fill="#969696" stroke="none" 
    	d="
    M870.247742,909.726074 
    	C866.386292,907.271240 866.386292,907.271240 868.843323,905.064697 
    	C869.594666,906.069153 870.143372,907.474609 871.153503,908.010742 
    	C873.153809,909.072449 875.694641,909.958191 873.911560,912.609985 
    	C872.099670,915.304688 869.520203,914.741516 866.229675,912.046265 
    	C869.042358,912.046265 870.802063,912.046265 872.561829,912.046265 
    	C872.643066,911.766296 872.724304,911.486328 872.805542,911.206299 
    	C872.076294,910.752258 871.347046,910.298157 870.247742,909.726074 
    z"/>
    <path id="path-131" fill="#8A8A8B" stroke="none" 
    	d="
    M317.099335,909.485962 
    	C316.386810,907.908142 315.674286,906.330444 314.970398,904.370911 
    	C314.979065,903.989136 314.989777,904.014160 315.306335,904.164368 
    	C315.820679,905.429260 316.018494,906.544006 316.304108,908.153442 
    	C317.515533,906.569397 318.291962,905.554260 319.316681,904.429565 
    	C319.733398,904.253845 319.901794,904.187683 320.382629,904.229614 
    	C321.121765,904.257874 321.548431,904.178101 321.975128,904.098267 
    	C321.705994,906.471863 322.296143,908.991333 320.516602,911.240479 
    	C320.255890,911.328186 320.009247,911.514893 319.889832,911.214600 
    	C318.880035,910.438171 317.989685,909.962036 317.099335,909.485962 
    M318.816956,907.959106 
    	C318.812531,908.650208 318.808105,909.341248 318.803680,910.032349 
    	C319.211975,909.932129 319.981232,909.779480 319.975433,909.739502 
    	C319.853119,908.897522 319.643311,908.068298 318.816956,907.959106 
    z"/>
    <path id="path-132" fill="#8A8A8B" stroke="none" 
    	d="
    M887.920959,930.580627 
    	C888.365356,933.589050 888.710693,936.210388 889.094666,939.124756 
    	C888.207825,939.124756 886.217102,939.124756 884.881714,939.124756 
    	C884.881714,935.898804 884.881714,932.815857 884.881714,929.305847 
    	C885.307983,929.434509 886.564941,929.814026 887.920959,930.580627 
    z"/>
    <path id="path-133" fill="#A2A3A2" stroke="none" 
    	d="
    M883.935913,1036.205200 
    	C884.501709,1034.726929 885.294739,1033.540161 886.087830,1032.353271 
    	C886.551880,1032.692749 887.015869,1033.032227 887.479919,1033.371704 
    	C886.890564,1033.828735 886.301208,1034.285645 885.634399,1034.802734 
    	C886.388123,1037.465088 893.265381,1036.010986 890.227051,1040.800171 
    	C888.622192,1043.329712 885.572998,1042.960083 882.861084,1040.173828 
    	C885.282227,1040.173828 887.107239,1040.173828 888.932190,1040.173828 
    	C888.992676,1039.823730 889.053101,1039.473633 889.113586,1039.123535 
    	C887.463440,1038.247925 885.813293,1037.372314 883.935913,1036.205200 
    z"/>
    <path id="path-135" fill="#8A8A8B" stroke="none" 
    	d="
    M977.790161,904.394409 
    	C974.975098,906.250549 969.441772,904.971252 971.024170,911.620789 
    	C967.931091,909.568115 968.638306,905.662415 972.271484,904.070435 
    	C973.914246,903.350647 975.393188,902.256958 977.279297,901.135010 
    	C977.373840,901.734192 977.555847,902.888000 977.790161,904.394409 
    z"/>
    <path id="path-136" fill="#8A8A8B" stroke="none" 
    	d="
    M952.863892,1014.206665 
    	C954.820374,1009.829224 954.939026,1005.799438 952.428589,1001.830383 
    	C955.947266,1000.523132 956.175110,1002.515320 956.223083,1005.220337 
    	C956.280212,1008.441162 956.737915,1011.654968 957.050293,1015.190735 
    	C956.264709,1015.063965 954.416443,1014.765686 952.863892,1014.206665 
    z"/>
    <path id="path-138" fill="#8A8A8B" stroke="none" 
    	d="
    M910.978577,963.912354 
    	C909.332947,963.592163 906.901245,963.804810 906.234192,962.821106 
    	C905.335388,961.495178 905.025513,958.678040 905.867493,957.540405 
    	C906.917542,956.121582 909.397461,955.761047 911.595520,955.293701 
    	C911.896484,956.192139 911.861938,956.740356 911.449585,957.120850 
    	C908.440979,956.005798 906.901001,957.284119 907.374390,959.690430 
    	C907.624329,960.960388 909.718140,961.867615 910.986145,963.182129 
    	C910.992981,963.425537 910.978577,963.912354 910.978577,963.912354 
    z"/>
    <path id="path-140" fill="#969696" stroke="none" 
    	d="
    M320.694580,1014.542175 
    	C318.578033,1014.028992 315.321442,1014.175354 314.568237,1012.873413 
    	C312.650604,1009.558899 312.350067,1005.667480 316.310913,1002.706604 
    	C316.940308,1002.935059 317.071777,1003.088135 316.972992,1003.578796 
    	C314.266907,1009.930054 315.240723,1013.103699 319.979858,1013.939575 
    	C320.369507,1014.282898 320.532043,1014.412537 320.694580,1014.542175 
    z"/>
    <path id="path-141" fill="#8A8A8B" stroke="none" 
    	d="
    M273.307068,983.017334 
    	C272.804535,982.378723 272.680878,981.902893 272.372314,981.265625 
    	C272.926239,979.575806 273.665039,978.047424 274.403839,976.519104 
    	C274.769653,976.612976 275.135498,976.706848 275.501343,976.800720 
    	C275.501343,980.978699 275.501343,985.156677 275.501343,989.334656 
    	C275.141754,989.391357 274.782196,989.447998 274.422607,989.504700 
    	C274.177063,987.396484 273.931488,985.288330 273.307068,983.017334 
    z"/>
    <path id="path-142" fill="#969696" stroke="none" 
    	d="
    M837.990906,1017.394592 
    	C839.695190,1012.089722 841.712280,1006.688538 843.729370,1001.287354 
    	C844.317993,1001.526794 844.906616,1001.766296 845.495239,1002.005798 
    	C843.098083,1007.103271 840.700867,1012.200745 837.990906,1017.394592 
    z"/>
    <path id="path-143" fill="#969696" stroke="none" 
    	d="
    M932.745483,951.492554 
    	C934.022583,953.466858 935.005920,955.280884 936.301880,957.671692 
    	C933.432739,957.520874 931.841614,957.437256 928.642822,957.269165 
    	C930.144897,954.927917 931.298340,953.130188 932.745483,951.492554 
    z"/>
    <path id="path-145" fill="#8A8A8B" stroke="none" 
    	d="
    M959.788330,913.265015 
    	C961.367310,911.793457 963.104797,910.623779 964.842285,909.454102 
    	C963.333801,907.921387 961.825317,906.388733 960.301636,904.512329 
    	C962.303833,905.139038 964.845703,905.674438 966.145081,907.240601 
    	C966.943970,908.203491 966.470154,911.392151 965.426880,912.398499 
    	C964.286011,913.498962 961.829834,913.235718 959.788330,913.265015 
    z"/>
    <path id="path-146" fill="#A2A3A2" stroke="none" 
    	d="
    M833.668274,1029.208252 
    	C831.457275,1034.553101 829.334595,1039.555420 827.211914,1044.557861 
    	C826.714050,1044.334961 826.216125,1044.112061 825.718262,1043.889038 
    	C828.046448,1038.777588 830.372742,1033.665161 832.715149,1028.560181 
    	C832.765869,1028.449585 833.046265,1028.329834 833.140320,1028.375977 
    	C833.370422,1028.488892 833.554138,1028.696411 833.668274,1029.208252 
    z"/>
    <path id="path-148" fill="#969696" stroke="none" 
    	d="
    M826.736938,1014.620361 
    	C828.769043,1009.985474 830.676941,1005.704468 832.584839,1001.423462 
    	C832.988647,1001.604309 833.392395,1001.785217 833.796204,1001.966125 
    	C831.530701,1007.292542 829.265259,1012.619019 826.999817,1017.945435 
    	C826.654419,1017.818787 826.309082,1017.692078 825.963684,1017.565369 
    	C826.180054,1016.701660 826.396423,1015.838013 826.736938,1014.620361 
    z"/>
    <path id="path-149" fill="#161616" stroke="none" 
    	d="
    M319.068390,904.539062 
    	C318.291962,905.554260 317.515533,906.569397 316.304108,908.153442 
    	C316.018494,906.544006 315.820679,905.429260 315.319244,904.168335 
    	C315.724091,902.702454 316.432556,901.382812 317.141052,900.063232 
    	C318.766968,901.193481 320.392883,902.323730 321.996979,903.776123 
    	C321.548431,904.178101 321.121765,904.257874 320.239655,904.055542 
    	C319.545624,904.028564 319.307007,904.283813 319.068390,904.539062 
    z"/>
    <path id="path-150" fill="#969696" stroke="none" 
    	d="
    M872.814453,1006.823425 
    	C874.851746,1006.863220 877.526428,1006.146729 878.737183,1007.167175 
    	C879.828674,1008.087158 880.196655,1011.704590 879.297852,1012.699036 
    	C878.069275,1014.058411 875.339172,1014.060852 873.288086,1014.163208 
    	C873.454529,1013.552979 873.585754,1013.424438 874.031006,1013.479126 
    	C877.766785,1014.539856 878.400024,1012.360718 878.144653,1009.841309 
    	C877.866699,1007.100525 876.241516,1006.237549 873.482056,1007.456543 
    	C873.111145,1007.104858 872.962830,1006.964111 872.814453,1006.823425 
    z"/>
    <path id="path-152" fill="#969696" stroke="none" 
    	d="
    M977.093872,1039.616089 
    	C976.866882,1037.220337 976.558777,1035.230469 976.184937,1032.816162 
    	C978.196960,1031.928345 979.214111,1032.731445 979.182678,1035.706787 
    	C979.161987,1037.665894 979.768860,1039.631592 980.131287,1041.814941 
    	C979.154175,1041.814941 977.183716,1041.814941 974.871887,1041.814941 
    	C975.813049,1041.026733 976.412903,1040.524292 977.093872,1039.616089 
    z"/>
    <path id="path-153" fill="#969696" stroke="none" 
    	d="
    M911.308044,963.953247 
    	C910.978577,963.912354 910.992981,963.425537 911.171021,962.866821 
    	C911.508545,960.634888 911.667969,958.961731 911.827393,957.288574 
    	C911.861938,956.740356 911.896484,956.192139 911.922180,955.232056 
    	C912.021484,953.577759 912.129578,952.335449 912.237671,951.093079 
    	C912.664062,951.087402 913.090454,951.081787 913.516846,951.076111 
    	C913.516846,955.333740 913.524719,959.591553 913.438782,963.847412 
    	C913.437500,963.908386 912.263977,963.945740 911.308044,963.953247 
    z"/>
    <path id="path-155" fill="#A2A3A2" stroke="none" 
    	d="
    M1032.231934,1006.485962 
    	C1034.182251,1006.681885 1036.960571,1006.180725 1037.865967,1007.256226 
    	C1038.916016,1008.503540 1039.086304,1011.606812 1038.212280,1013.025818 
    	C1037.431763,1014.292908 1034.709351,1014.363770 1032.810059,1014.567993 
    	C1032.915161,1014.043518 1033.054077,1013.913391 1033.558838,1013.845032 
    	C1035.185547,1012.621338 1036.446655,1011.335815 1037.707764,1010.050354 
    	C1036.182983,1009.082092 1034.658203,1008.113831 1032.918457,1006.966431 
    	C1032.546387,1006.686890 1032.389160,1006.586426 1032.231934,1006.485962 
    z"/>
    <path id="path-156" fill="#A2A3A2" stroke="none" 
    	d="
    M975.829651,1014.192871 
    	C972.981628,1012.034302 972.974365,1009.147095 975.232788,1007.079224 
    	C976.506592,1005.912842 979.228577,1006.328125 981.298157,1006.030945 
    	C981.349609,1006.566650 981.401001,1007.102417 981.452454,1007.638123 
    	C979.912781,1007.638123 977.548889,1007.042236 977.020264,1007.773254 
    	C976.157349,1008.966797 976.490967,1011.025513 976.305298,1013.232300 
    	C976.137085,1013.894592 975.983337,1014.043762 975.829651,1014.192871 
    z"/>
    <path id="path-158" fill="#969696" stroke="none" 
    	d="
    M986.491089,1013.819824 
    	C986.244141,1011.734253 985.106445,1009.029358 986.003601,1007.739258 
    	C986.882019,1006.475647 989.832886,1006.652954 991.825439,1006.713074 
    	C991.624756,1007.382263 991.472656,1007.536194 991.015564,1007.479370 
    	C985.718750,1006.712036 987.095398,1010.193115 986.981812,1013.078491 
    	C986.691528,1013.477844 986.591309,1013.648804 986.491089,1013.819824 
    z"/>
    <path id="path-159" fill="#969696" stroke="none" 
    	d="
    M321.529114,1003.269836 
    	C321.709320,1006.619446 321.889496,1009.969055 321.586151,1013.286926 
    	C320.947479,1013.065552 320.792328,1012.875854 320.752869,1012.278198 
    	C320.794922,1009.352234 320.721283,1006.834351 320.879822,1004.064697 
    	C321.251007,1003.631897 321.390045,1003.450867 321.529114,1003.269836 
    z"/>
    <path id="path-164" fill="#969696" stroke="none" 
    	d="
    M873.126343,1013.874023 
    	C870.352783,1012.016479 870.532532,1009.665344 872.494324,1006.989014 
    	C872.962830,1006.964111 873.111145,1007.104858 873.281860,1007.772827 
    	C873.441833,1009.965332 873.579407,1011.630676 873.716919,1013.295959 
    	C873.585754,1013.424438 873.454529,1013.552979 873.126343,1013.874023 
    z"/>
    <path id="path-166" fill="#969696" stroke="none" 
    	d="
    M992.005005,1006.997375 
    	C994.785034,1008.932617 994.538330,1011.315674 992.231567,1013.759888 
    	C991.536377,1013.562744 991.389160,1013.421509 991.425903,1012.963867 
    	C991.513489,1010.994995 991.417053,1009.342590 991.320557,1007.690186 
    	C991.472656,1007.536194 991.624756,1007.382263 992.005005,1006.997375 
    z"/>
    <path id="path-167" fill="#8A8A8B" stroke="none" 
    	d="
    M975.959595,911.972595 
    	C975.692322,912.463013 975.424988,912.953369 975.008667,913.684814 
    	C973.385681,913.461060 971.911621,912.996277 970.692017,912.287109 
    	C972.361328,912.018494 973.776367,911.994263 975.597412,911.989258 
    	C976.003540,912.008545 975.959595,911.972595 975.959595,911.972595 
    z"/>
    <path id="path-170" fill="#A2A3A2" stroke="none" 
    	d="
    M1031.467285,1013.611633 
    	C1031.316528,1011.653931 1031.165771,1009.696167 1031.429688,1007.743286 
    	C1031.981323,1007.907227 1032.118042,1008.066223 1032.209351,1008.602234 
    	C1032.199463,1010.240173 1032.235107,1011.501099 1032.064209,1012.968994 
    	C1031.727539,1013.321289 1031.597412,1013.466431 1031.467285,1013.611633 
    z"/>
    <path id="path-173" fill="#A2A3A2" stroke="none" 
    	d="
    M976.541199,1013.544067 
    	C978.313782,1013.442688 979.836060,1013.542725 981.358337,1013.642761 
    	C981.441345,1013.913574 981.524353,1014.184387 981.607361,1014.455200 
    	C979.840149,1014.570557 978.072876,1014.685913 976.067627,1014.497070 
    	C975.983337,1014.043762 976.137085,1013.894592 976.541199,1013.544067 
    z"/>
    <path id="path-177" fill="#969696" stroke="none" 
    	d="
    M316.629364,1002.538330 
    	C317.672699,1002.230408 318.895569,1002.166199 320.114624,1002.503540 
    	C319.972412,1003.048279 319.833984,1003.191467 319.387909,1003.261597 
    	C318.454590,1003.206177 317.828888,1003.223694 317.203217,1003.241211 
    	C317.071777,1003.088135 316.940308,1002.935059 316.629364,1002.538330 
    z"/>
    <path id="path-178" fill="#969696" stroke="none" 
    	d="
    M991.903931,1013.916382 
    	C990.721985,1014.402649 989.319641,1014.676453 987.817810,1014.586975 
    	C987.854980,1014.101196 987.991699,1013.978638 988.454407,1013.881714 
    	C989.600891,1013.698364 990.421387,1013.489258 991.241882,1013.280273 
    	C991.389160,1013.421509 991.536377,1013.562744 991.903931,1013.916382 
    z"/>
    <path id="path-187" fill="#A2A3A2" stroke="none" 
    	d="
    M1032.553223,1014.351868 
    	C1032.078369,1014.389343 1031.864624,1014.204407 1031.578125,1013.793457 
    	C1031.597412,1013.466431 1031.727539,1013.321289 1032.283447,1013.070923 
    	C1032.975220,1013.176331 1033.136475,1013.448792 1033.192993,1013.783264 
    	C1033.054077,1013.913391 1032.915161,1014.043518 1032.553223,1014.351868 
    z"/>
    <path id="path-188" fill="#969696" stroke="none" 
    	d="
    M987.491699,1014.380249 
    	C987.053162,1014.424133 986.867310,1014.278076 986.599365,1013.959290 
    	C986.591309,1013.648804 986.691528,1013.477844 987.204834,1013.177612 
    	C987.901367,1013.246033 988.071533,1013.515320 988.128418,1013.856079 
    	C987.991699,1013.978638 987.854980,1014.101196 987.491699,1014.380249 
    z"/>
    <path id="path-189" fill="#969696" stroke="none" 
    	d="
    M321.285461,1013.574097 
    	C321.345337,1014.089294 321.188354,1014.252869 320.845947,1014.462952 
    	C320.532043,1014.412537 320.369507,1014.282898 320.063904,1013.718079 
    	C320.086700,1012.996460 320.325470,1012.797546 320.637146,1012.686157 
    	C320.792328,1012.875854 320.947479,1013.065552 321.285461,1013.574097 
    z"/>
    <path id="path-191" fill="#A2A3A2" stroke="none" 
    	d="
    M1031.667603,1007.487976 
    	C1031.598267,1007.011963 1031.746094,1006.828613 1032.083008,1006.581787 
    	C1032.389160,1006.586426 1032.546387,1006.686890 1032.850342,1007.202026 
    	C1032.835449,1007.924072 1032.588013,1008.126892 1032.254883,1008.225159 
    	C1032.118042,1008.066223 1031.981323,1007.907227 1031.667603,1007.487976 
    z"/>
    <path id="path-192" fill="#969696" stroke="none" 
    	d="
    M320.324524,1002.696472 
    	C320.815552,1002.579163 321.057526,1002.727966 321.396667,1003.101990 
    	C321.390045,1003.450867 321.251007,1003.631897 320.665283,1003.961365 
    	C319.944061,1003.919067 319.769684,1003.660645 319.695557,1003.334595 
    	C319.833984,1003.191467 319.972412,1003.048279 320.324524,1002.696472 
    z"/>
    <path id="path-215" fill="#010101" stroke="none" 
    	d="
    M305.527405,911.032410 
    	C304.999847,910.255249 305.176056,909.464600 305.352295,908.673889 
    	C306.029419,909.147339 306.706543,909.620789 307.506409,910.473267 
    	C307.163116,910.907837 306.697144,910.963379 305.527405,911.032410 
    z"/>
    <path id="path-216" fill="#010101" stroke="none" 
    	d="
    M317.127106,909.914673 
    	C317.989685,909.962036 318.880035,910.438171 319.770569,911.313049 
    	C318.898773,911.255676 318.026825,910.799561 317.127106,909.914673 
    z"/>
    <path id="path-217" fill="#010101" stroke="none" 
    	d="
    M314.536072,910.464844 
    	C314.565125,910.515259 314.506989,910.414490 314.536072,910.464844 
    z"/>
    <path id="path-219" fill="#161616" stroke="none" 
    	d="
    M272.228333,937.200928 
    	C269.698975,938.305481 268.836914,937.496887 268.895050,935.251770 
    	C268.957794,932.827759 268.909271,930.400879 268.909271,927.978577 
    	C274.483551,927.996155 275.663513,931.277039 272.228333,937.200928 
    z"/>
    <path id="path-220" fill="#0A0A0A" stroke="none" 
    	d="
    M332.372131,1011.995483 
    	C330.970093,1012.620911 329.750214,1012.895935 328.530334,1013.171021 
    	C328.167938,1010.520691 327.591644,1007.870117 327.594940,1005.220215 
    	C327.595764,1004.565369 329.479340,1003.912964 330.497437,1003.259399 
    	C331.298767,1004.756531 332.363617,1006.179321 332.813934,1007.775513 
    	C333.144592,1008.947632 332.670013,1010.347046 332.372131,1011.995483 
    z"/>
    <path id="path-221" fill="#0A0A0A" stroke="none" 
    	d="
    M269.047760,911.114136 
    	C268.647858,909.620483 268.001038,908.316223 268.356537,907.401367 
    	C269.098328,905.492371 270.675323,902.143921 271.372894,902.273560 
    	C275.330231,903.008667 274.068604,906.577576 273.930542,909.144653 
    	C273.773163,912.071228 272.166290,913.408569 269.047760,911.114136 
    z"/>
    <path id="path-222" fill="#161616" stroke="none" 
    	d="
    M941.978760,930.985718 
    	C943.304749,931.551758 945.234070,931.787659 945.836121,932.807312 
    	C946.405701,933.771912 945.769470,935.633911 945.251160,936.937317 
    	C945.103943,937.307495 942.728088,937.257874 942.705261,937.140869 
    	C942.356995,935.357300 942.229919,933.530579 942.013672,931.332581 
    	C941.976074,930.951233 942.002380,930.997925 941.978760,930.985718 
    z"/>
    <path id="path-223" fill="#0A0A0A" stroke="none" 
    	d="
    M941.981934,1033.998657 
    	C943.249939,1034.399658 945.333557,1034.494019 945.643433,1035.284180 
    	C946.154053,1036.585693 945.660522,1038.374878 945.268127,1039.874268 
    	C945.163818,1040.272949 943.319031,1040.689941 943.236389,1040.545898 
    	C942.548828,1039.347534 941.984314,1038.048950 941.605896,1036.717163 
    	C941.448425,1036.163086 941.833252,1035.454834 941.982056,1034.391724 
    	C941.992615,1033.966675 942.000610,1034.004639 941.981934,1033.998657 
    z"/>
    <path id="path-224" fill="#010101" stroke="none" 
    	d="
    M376.404358,962.477783 
    	C376.438538,962.244568 376.625214,962.211975 376.811890,962.179443 
    	C376.726898,962.345703 376.641876,962.512085 376.404358,962.477783 
    z"/>
    <path id="path-225" fill="#0A0A0A" stroke="none" 
    	d="
    M900.999756,956.980469 
    	C901.001282,957.617065 901.239075,958.421997 900.945740,958.902527 
    	C900.064148,960.346252 898.975403,961.663452 897.967529,963.030029 
    	C897.225464,961.881104 895.869934,960.734924 895.864624,959.582642 
    	C895.852173,956.886475 897.367188,955.656738 900.583313,956.974731 
    	C901.034302,956.995300 900.993103,957.000427 900.999756,956.980469 
    z"/>
    <path id="path-226" fill="#8A8A8B" stroke="none" 
    	d="
    M976.023682,912.028564 
    	C976.135010,911.998718 976.226196,911.948975 976.138489,911.935913 
    	C975.959595,911.972595 976.003540,912.008545 976.023682,912.028564 
    z"/>
    <path id="path-227" fill="#010101" stroke="none" 
    	d="
    M319.133789,907.597839 
    	C319.643311,908.068298 319.853119,908.897522 319.975433,909.739502 
    	C319.981232,909.779480 319.211975,909.932129 318.803711,910.032349 
    	C318.808105,909.341248 318.812531,908.650208 319.133789,907.597839 
    z"/>
    <path id="path-228" fill="#010101" stroke="none" 
    	d="
    M319.316711,904.429565 
    	C319.307007,904.283813 319.545624,904.028564 319.927246,903.947388 
    	C319.901794,904.187683 319.733398,904.253845 319.316711,904.429565 
    z"/>
    <path id="path-229" fill="#161616" stroke="none" 
    	d="
    M911.449524,957.120850 
    	C911.667969,958.961731 911.508545,960.634888 911.164185,962.623352 
    	C909.718140,961.867615 907.624329,960.960388 907.374390,959.690430 
    	C906.901001,957.284119 908.440979,956.005798 911.449524,957.120850 
    z"/>
    <path id="path-230" fill="#161616" stroke="none" 
    	d="
    M319.387909,1003.261597 
    	C319.769684,1003.660645 319.944061,1003.919067 320.433167,1004.213135 
    	C320.721283,1006.834351 320.794922,1009.352234 320.752869,1012.278198 
    	C320.325470,1012.797546 320.086700,1012.996460 319.836792,1013.504395 
    	C315.240723,1013.103699 314.266907,1009.930054 316.972992,1003.578796 
    	C317.828888,1003.223694 318.454590,1003.206177 319.387909,1003.261597 
    z"/>
    <path id="path-231" fill="#0A0A0A" stroke="none" 
    	d="
    M874.031006,1013.479126 
    	C873.579407,1011.630676 873.441833,1009.965332 873.504456,1007.983765 
    	C876.241516,1006.237549 877.866699,1007.100525 878.144653,1009.841309 
    	C878.400024,1012.360718 877.766785,1014.539856 874.031006,1013.479126 
    z"/>
    <path id="path-232" fill="#161616" stroke="none" 
    	d="
    M1032.209351,1008.602234 
    	C1032.588013,1008.126892 1032.835449,1007.924072 1033.065186,1007.381104 
    	C1034.658203,1008.113831 1036.182983,1009.082092 1037.707764,1010.050354 
    	C1036.446655,1011.335815 1035.185547,1012.621338 1033.558838,1013.845032 
    	C1033.136475,1013.448792 1032.975220,1013.176331 1032.489990,1012.863892 
    	C1032.235107,1011.501099 1032.199463,1010.240173 1032.209351,1008.602234 
    z"/>
    <path id="path-233" fill="#0A0A0A" stroke="none" 
    	d="
    M988.454407,1013.881714 
    	C988.071533,1013.515320 987.901367,1013.246033 987.394958,1012.949158 
    	C987.095398,1010.193115 985.718750,1006.712036 991.015564,1007.479370 
    	C991.417053,1009.342590 991.513489,1010.994995 991.425903,1012.963806 
    	C990.421387,1013.489258 989.600891,1013.698364 988.454407,1013.881714 
    z"/>
  </g>

</svg>
