<svg
  id="sword-part"
  xmlns="http://www.w3.org/2000/svg"
  version="2.0"
  viewBox="0 0 1254 1254"
  role="img"
  aria-labelledby="title desc">
  <title id="title">Central Sword</title>
  <desc id="desc">The central sword axis extracted from the Adobe converted SVG.</desc>
  <g id="background">
    <rect
      id="transparent-background"
      x="0"
      y="0"
      width="1254"
      height="1254"
      fill="none" />
  </g>
  <g id="sword">
    <path id="path-005" fill="#FBFBFB" stroke="none" 
    	d="
    M632.136169,513.408936 
    	C634.164246,512.419983 636.192261,511.430969 639.262329,509.933868 
    	C639.668945,512.857666 640.258545,515.125122 640.259949,517.392944 
    	C640.305603,590.028076 640.276123,662.663147 640.301819,735.298279 
    	C640.310486,759.787476 639.905029,784.293457 640.678467,808.760498 
    	C641.300415,828.438538 639.154419,847.551208 633.564575,866.357727 
    	C632.573425,869.692200 631.800293,873.091431 630.080933,876.577148 
    	C628.091187,868.384827 626.328003,860.129089 624.055298,852.016052 
    	C621.103699,841.479797 620.528687,830.816467 620.548157,819.927246 
    	C620.729553,718.638306 620.702271,617.348999 620.771973,516.059753 
    	C620.773071,514.439697 621.233154,512.819885 622.106689,510.666809 
    	C624.211609,511.019470 625.599609,512.159058 627.191528,512.718567 
    	C628.730530,513.259460 630.479431,513.203003 632.136169,513.408936 
    z"/>
    <path id="path-015" fill="#F3F3F4" stroke="none" 
    	d="
    M622.211487,507.520447 
    	C615.161865,502.591187 607.872192,502.602692 599.778320,506.510071 
    	C598.719910,505.385162 597.394958,503.976929 596.011902,502.506958 
    	C597.407776,500.793793 598.643677,499.276978 599.874207,497.766724 
    	C608.794739,501.935059 617.138245,499.392548 624.570557,496.876312 
    	C622.535767,479.365356 624.408630,462.375671 625.432617,444.909485 
    	C619.556152,440.439209 617.956665,437.015747 619.718079,431.819244 
    	C621.285950,427.193970 625.840576,423.943634 630.744690,423.950500 
    	C635.546875,423.957214 640.013489,427.314209 641.604919,432.112823 
    	C643.236389,437.032227 641.519775,440.451752 635.708618,444.659790 
    	C637.230225,461.956696 637.651733,478.813019 636.945923,496.936127 
    	C643.831604,499.261261 652.296143,500.733002 662.067017,498.763702 
    	C662.621338,499.349640 663.847107,500.645233 665.339172,502.222382 
    	C664.021301,503.638733 662.837219,504.911346 661.758362,506.070831 
    	C651.263672,500.917664 642.157532,506.798767 631.983032,508.957947 
    	C628.266235,508.637970 625.238892,508.079193 622.211487,507.520447 
    z"/>
  </g>

</svg>
