<svg
  id="yt-letters-part"
  xmlns="http://www.w3.org/2000/svg"
  version="2.0"
  viewBox="0 0 1254 1254"
  role="img"
  aria-labelledby="title desc">
  <title id="title">YT Letters</title>
  <desc id="desc">Only the Y and T letterforms extracted from the Adobe converted SVG.</desc>
  <g id="background">
    <rect
      id="transparent-background"
      x="0"
      y="0"
      width="1254"
      height="1254"
      fill="none" />
  </g>
  <g id="yt-letters">
    <path id="path-001" fill="#FBFBFB" stroke="none" 
    	d="
    M693.699616,455.154419 
    	C691.096650,456.016388 689.934602,456.528320 688.718659,456.784576 
    	C672.476960,460.207428 657.922883,467.406006 644.587128,477.040527 
    	C626.707581,489.957733 612.694398,505.905670 607.993012,528.185181 
    	C606.682557,534.395508 607.028718,540.955383 606.611603,547.405457 
    	C593.851380,550.534668 588.120911,553.497253 578.488282,563.161926 
    	C574.398743,567.265076 570.650910,571.832764 567.410310,576.636230 
    	C554.190125,596.232483 541.182923,615.973206 528.240601,642.500244 
    	C528.136169,676.665955 527.742188,710.841797 528.527466,744.989685 
    	C528.679321,751.593811 533.320435,758.199951 536.347656,764.588623 
    	C537.885864,767.834961 540.441040,770.599365 542.714111,773.834534 
    	C531.678711,782.583313 529.939514,795.172180 529.808289,808.026245 
    	C529.544495,833.855286 529.783752,859.689453 529.815125,885.521545 
    	C529.816711,886.830505 529.815308,888.139465 528.955383,889.616760 
    	C528.623169,887.935913 528.265869,886.259521 527.962585,884.573486 
    	C523.231079,858.267395 517.267273,832.242249 505.872040,807.945129 
    	C501.254181,798.098938 495.049011,788.858704 488.598083,780.051880 
    	C482.789490,772.122070 474.339752,767.233459 464.671997,765.315002 
    	C466.924316,762.862610 468.835419,760.785583 470.742401,758.704834 
    	C477.882538,750.913696 482.549316,742.651733 482.266876,731.169617 
    	C481.537628,701.521301 482.060272,671.843079 481.938995,642.177368 
    	C481.930145,640.018127 481.238495,637.552673 480.062012,635.754517 
    	C467.119690,615.973206 454.112488,596.232483 440.892303,576.636230 
    	C437.651703,571.832764 433.903870,567.265076 429.814331,563.161926 
    	C420.181702,553.497253 414.451233,550.534668 401.691010,547.405457 
    	C401.273895,540.955383 401.620056,534.395508 400.309601,528.185181 
    	C395.608215,505.905670 381.595032,489.957733 363.715485,477.040527 
    	C350.379730,467.406006 335.825653,460.207428 319.583954,456.784576 
    	C318.368011,456.528320 317.205963,456.016388 314.602997,455.154419 
    	C363.311157,455.154419 410.474792,455.154419 458.974396,455.154419 
    	C456.635742,456.494720 455.433929,457.200714 454.216492,457.878540 
    	C438.235718,466.775818 433.422089,482.591858 442.492889,498.650635 
    	C448.050293,508.489441 454.604401,517.765869 460.724915,527.285828 
    	C474.144043,548.158203 487.565155,569.029297 501.005676,589.887878 
    	C502.614136,592.384094 504.347870,594.799561 506.513763,597.970032 
    	C503.954743,594.799561 505.688477,592.384094 507.296937,589.887878 
    	C520.737458,569.029297 534.158570,548.158203 547.577698,527.285828 
    	C553.698212,517.765869 560.252320,508.489441 565.809724,498.650635 
    	C574.880524,482.591858 570.066895,466.775818 554.086121,457.878540 
    	C552.868684,457.200714 551.666871,456.494720 549.328217,455.154419 
    	C597.827821,455.154419 644.991456,455.154419 693.699616,455.154419 
    z"/>
    <path id="path-002" fill="#FCFBFC" stroke="none" 
    	d="
    M949.748657,536.708130 
    	C928.593872,547.433472 914.217407,558.649780 897.494019,577.487854 
    	C893.861633,564.981934 884.847412,561.171692 872.881592,561.372925 
    	C856.891235,561.641724 840.892273,561.395996 824.897034,561.395264 
    	C822.733337,561.395142 820.555847,561.403992 818.408203,561.630493 
    	C808.270630,562.699585 806.036682,565.174988 806.030518,575.106934 
    	C806.015381,599.433289 805.992981,623.759583 805.973450,648.085938 
    	C805.973206,648.419189 806.087280,648.808655 805.955444,649.077454 
    	C801.537231,658.086121 806.891357,667.024231 806.166199,676.084900 
    	C805.397766,685.687378 805.989624,695.398926 805.990540,705.062805 
    	C805.991394,714.560059 806.490601,724.089355 805.877258,733.546631 
    	C805.062317,746.112854 811.094055,755.139343 819.452698,763.297119 
    	C820.484924,764.304504 821.601379,765.225464 823.069092,766.534546 
    	C806.689697,769.674011 796.909485,780.474731 789.071411,793.428223 
    	C775.628723,815.644165 768.639771,840.280396 762.841980,865.308350 
    	C760.977478,873.357117 759.457520,881.485657 757.101318,889.523865 
    	C757.101318,882.323853 757.101990,875.123901 757.101196,867.923889 
    	C757.098938,848.096558 757.292908,828.266541 757.022400,808.442871 
    	C756.849304,795.760498 755.315063,783.336182 744.410645,774.712280 
    	C746.871338,771.171021 749.320007,767.997925 751.391235,764.595093 
    	C756.017944,756.994141 759.078979,749.148682 758.877563,739.769958 
    	C758.369690,716.121155 758.589478,692.452454 758.859863,668.795593 
    	C758.906372,664.724670 762.285400,660.122131 761.160461,656.755798 
    	C759.836853,652.794739 758.654114,649.131165 758.666870,644.937561 
    	C758.740601,620.611511 758.724609,596.285095 758.700989,571.958801 
    	C739.777405,561.395264 723.782166,561.395996 707.783204,561.641724 
    	C691.792847,561.372925 679.827027,561.171692 670.812806,564.981934 
    	C667.180420,577.487854 650.457032,558.649780 636.080567,547.433472 
    	C614.925782,536.708130 608.445069,534.030640 602.298768,531.522095 
    	C595.716492,528.835571 701.702088,528.835571 757.490417,528.835571 
    	C757.490417,528.835571 862.972351,528.835571 968.957947,528.835571 
    	C962.375671,531.522095 956.229370,534.030640 949.748657,536.708130 
    z"/>
  </g>

</svg>
